<svg width="81" height="20" fill="none" xmlns="http://www.w3.org/2000/svg"><path d="M13.27 10.435c-.02-2.354 1.925-3.497 2.01-3.55-1.103-1.604-2.813-1.827-3.41-1.847-1.434-.151-2.827.861-3.557.861-.743 0-1.874-.841-3.083-.822-1.558.027-3.024.927-3.82 2.334-1.65 2.86-.42 7.066 1.164 9.38.796 1.13 1.716 2.4 2.932 2.354 1.183-.046 1.63-.756 3.057-.756 1.42 0 1.834.756 3.07.73 1.275-.02 2.07-1.138 2.84-2.282.913-1.295 1.281-2.576 1.294-2.642-.033-.013-2.471-.947-2.498-3.76zM10.935 3.52c.638-.796 1.072-1.88.953-2.985-.92.04-2.077.638-2.74 1.42-.586.69-1.112 1.814-.98 2.873 1.038.079 2.103-.526 2.767-1.308zM30.44 15.505h-1.657l-.907-2.853H24.72l-.861 2.853h-1.611l3.122-9.71h1.933l3.136 9.71zm-2.834-4.05l-.821-2.53c-.086-.263-.25-.868-.487-1.828h-.033a84.63 84.63 0 01-.46 1.828l-.808 2.53h2.61zm10.86.466c0 1.19-.322 2.13-.973 2.82-.578.618-1.301.92-2.156.92-.927 0-1.59-.328-1.998-.992v3.675H31.78v-7.54c0-.75-.02-1.512-.06-2.301h1.368l.085 1.11h.027c.519-.834 1.308-1.255 2.36-1.255.828 0 1.511.33 2.064.98.565.657.841 1.512.841 2.583zm-1.584.053c0-.684-.151-1.243-.46-1.683a1.593 1.593 0 00-1.354-.69c-.382 0-.73.131-1.046.381a1.76 1.76 0 00-.61 1 2.13 2.13 0 00-.073.473v1.17c0 .506.157.94.467 1.288.308.348.716.526 1.216.526.585 0 1.038-.23 1.367-.677.328-.454.493-1.045.493-1.788zm9.63-.053c0 1.19-.322 2.13-.973 2.82-.578.618-1.301.92-2.156.92-.927 0-1.59-.328-1.998-.992v3.675h-1.558v-7.54c0-.75-.02-1.512-.06-2.301h1.368l.085 1.11h.027c.519-.834 1.308-1.255 2.36-1.255.828 0 1.511.33 2.064.98.565.657.841 1.512.841 2.583zm-1.584.053c0-.684-.151-1.243-.46-1.683a1.593 1.593 0 00-1.355-.69c-.38 0-.73.131-1.045.381a1.796 1.796 0 00-.611 1 2.13 2.13 0 00-.072.473v1.17c0 .506.157.94.466 1.288.31.348.717.526 1.217.526.585 0 1.045-.23 1.367-.677.335-.454.493-1.045.493-1.788zm10.59.809c0 .828-.29 1.499-.861 2.018-.631.565-1.512.848-2.643.848-1.045 0-1.88-.204-2.511-.605l.361-1.295a4.366 4.366 0 002.249.605c.585 0 1.045-.131 1.367-.394.329-.263.493-.618.493-1.059 0-.394-.138-.723-.401-.992-.27-.27-.717-.52-1.341-.75-1.716-.637-2.564-1.564-2.564-2.78 0-.796.303-1.447.9-1.96.599-.505 1.394-.762 2.387-.762.88 0 1.617.151 2.202.46l-.394 1.262a3.88 3.88 0 00-1.867-.447c-.546 0-.98.139-1.289.401a1.167 1.167 0 00-.387.881c0 .382.15.704.447.947.256.23.73.48 1.413.75.835.335 1.446.729 1.84 1.183.402.453.599 1.018.599 1.689zm5.152-3.109h-1.715v3.398c0 .861.303 1.295.907 1.295.276 0 .506-.026.69-.072l.047 1.183c-.31.112-.71.171-1.21.171-.618 0-1.091-.19-1.44-.565-.348-.375-.519-1.006-.519-1.887v-3.53h-1.019V8.504h1.019V7.222l1.525-.46v1.742h1.716v1.17zm7.718 2.274c0 1.078-.309 1.959-.92 2.649-.644.71-1.499 1.065-2.564 1.065-1.025 0-1.847-.342-2.458-1.02-.611-.676-.914-1.537-.914-2.576 0-1.085.316-1.972.94-2.662.631-.69 1.48-1.039 2.544-1.039 1.026 0 1.854.342 2.478 1.026.599.657.894 1.512.894 2.557zm-1.61.033c0-.645-.138-1.19-.414-1.65-.329-.559-.796-.835-1.4-.835-.625 0-1.105.276-1.427.835-.282.46-.414 1.019-.414 1.683 0 .644.138 1.196.414 1.65.335.558.809.834 1.414.834.591 0 1.058-.282 1.4-.848.282-.473.427-1.025.427-1.67zM73.45 9.87a2.882 2.882 0 00-.493-.04c-.546 0-.973.205-1.269.619-.256.361-.388.828-.388 1.38v3.675h-1.558v-4.799c0-.808-.013-1.545-.046-2.202h1.354l.06 1.341h.046c.164-.46.42-.835.775-1.11.349-.25.723-.376 1.124-.376.145 0 .276.014.388.027l.007 1.485zm6.955 1.802c0 .276-.02.512-.06.703h-4.667c.02.69.244 1.223.678 1.584.394.322.9.487 1.525.487.69 0 1.32-.112 1.886-.329l.243 1.078c-.663.29-1.446.434-2.346.434-1.085 0-1.94-.322-2.557-.96-.618-.638-.927-1.499-.927-2.57 0-1.052.289-1.933.867-2.636.605-.75 1.42-1.124 2.446-1.124 1.006 0 1.775.375 2.287 1.124.414.605.625 1.334.625 2.209zm-1.486-.401c.013-.46-.092-.862-.302-1.197-.27-.434-.684-.65-1.236-.65-.506 0-.92.21-1.236.63a2.337 2.337 0 00-.46 1.21l3.234.007z" fill="#292525"/></svg>