<svg width="16" height="17" fill="none" xmlns="http://www.w3.org/2000/svg"><g clip-path="url(#clip0)" fill="#E30611"><path d="M9.88 3.188l-8.803 8.804a.35.35 0 00-.092.16L.01 16.07a.348.348 0 00.42.42l3.916-.976a.347.347 0 00.16-.091l8.805-8.804-3.43-3.43zm5.751-.718l-.98-.979c-.655-.655-1.796-.654-2.45 0L11 2.691l3.43 3.431 1.201-1.2c.327-.327.507-.763.507-1.226 0-.463-.18-.898-.507-1.225z"/></g><defs><clipPath id="clip0"><path fill="#fff" transform="translate(0 .5)" d="M0 0h16v16H0z"/></clipPath></defs></svg>