<svg width="32" height="33" fill="none" xmlns="http://www.w3.org/2000/svg"><g clip-path="url(#clip0)"><path d="M16 32.481c8.837 0 16-7.163 16-16 0-8.836-7.163-16-16-16s-16 7.164-16 16c0 8.837 7.163 16 16 16z" fill="#3B5998"/><path d="M20.022 17.108h-2.855v10.46h-4.326v-10.46h-2.057v-3.676h2.057v-2.379c0-1.7.809-4.365 4.365-4.365l3.204.014v3.568h-2.325c-.382 0-.918.19-.918 1.002v2.163H20.4l-.378 3.673z" fill="#fff"/></g><defs><clipPath id="clip0"><path fill="#fff" transform="translate(0 .481)" d="M0 0h32v32H0z"/></clipPath></defs></svg>