<svg width="94" height="23" fill="none" xmlns="http://www.w3.org/2000/svg"><path fill-rule="evenodd" clip-rule="evenodd" d="M.751.782c-.245.263-.386.669-.386 1.196v18.74c0 .528.141.933.395 1.188l.067.056L11.328 11.46v-.236L.818.727.75.782z" fill="url(#paint0_linear)"/><path fill-rule="evenodd" clip-rule="evenodd" d="M14.822 14.975l-3.503-3.503v-.245l3.504-3.504.076.047 4.144 2.355c1.187.668 1.187 1.77 0 2.448l-4.144 2.355-.077.047z" fill="url(#paint1_linear)"/><path fill-rule="evenodd" clip-rule="evenodd" d="M14.897 14.928l-3.578-3.58L.75 21.917c.386.415 1.035.462 1.762.056l12.384-7.044z" fill="url(#paint2_linear)"/><path fill-rule="evenodd" clip-rule="evenodd" d="M14.897 7.77L2.513.737C1.788.32 1.137.377.75.792l10.566 10.557 3.58-3.578z" fill="url(#paint3_linear)"/><path opacity=".2" fill-rule="evenodd" clip-rule="evenodd" d="M14.822 14.852l-12.3 6.989c-.687.395-1.3.367-1.695.009l-.066.066.066.056c.395.358 1.008.386 1.695-.009l12.385-7.035-.085-.076z" fill="#292525"/><path opacity=".12" fill-rule="evenodd" clip-rule="evenodd" d="M19.041 12.45l-4.229 2.402.076.076 4.144-2.355c.593-.339.886-.781.886-1.224-.038.405-.34.791-.877 1.101z" fill="#292525"/><path opacity=".25" fill-rule="evenodd" clip-rule="evenodd" d="M2.513.858l16.528 9.39c.537.302.839.697.886 1.102 0-.442-.292-.885-.886-1.224L2.513.736C1.326.058.365.622.365 1.978v.123C.365.745 1.326.189 2.513.858z" fill="#fff"/><path fill-rule="evenodd" clip-rule="evenodd" d="M23.961 10.755c0-3.002 2.524-5.446 5.526-5.446 1.66 0 2.84.651 3.732 1.5l-1.05 1.05a3.79 3.79 0 00-2.683-1.063c-2.193 0-3.906 1.766-3.906 3.958s1.713 3.96 3.905 3.96c1.42 0 2.23-.57 2.748-1.09.425-.426.704-1.036.811-1.874h-3.557v-1.484h5.008c.052.266.08.584.08.929 0 1.114-.306 2.497-1.29 3.48-.958.997-2.179 1.529-3.8 1.529-3.003 0-5.526-2.442-5.526-5.447l.002-.002zm14.662-1.567c-1.94 0-3.523 1.475-3.523 3.506 0 2.02 1.582 3.506 3.523 3.506 1.94 0 3.52-1.487 3.52-3.507 0-2.03-1.581-3.506-3.52-3.505zm0 5.633c-1.062 0-1.98-.876-1.98-2.126 0-1.262.917-2.126 1.98-2.126 1.061 0 1.978.863 1.978 2.126 0 1.249-.915 2.126-1.978 2.126zm7.68-5.633c-1.94 0-3.52 1.475-3.52 3.506 0 2.02 1.58 3.506 3.52 3.506 1.939 0 3.52-1.487 3.52-3.507 0-2.03-1.58-3.506-3.52-3.505zm0 5.633c-1.062 0-1.98-.876-1.98-2.126 0-1.262.917-2.126 1.98-2.126 1.062 0 1.979.863 1.979 2.126 0 1.249-.917 2.126-1.98 2.126zm9.425-5.42v.57h-.052c-.345-.413-1.01-.784-1.846-.784-1.753 0-3.363 1.542-3.363 3.522 0 1.965 1.609 3.494 3.363 3.494.837 0 1.5-.371 1.846-.796h.052v.504c0 1.34-.717 2.059-1.873 2.059-.943 0-1.527-.678-1.767-1.247l-1.342.558c.385.928 1.409 2.072 3.108 2.072 1.806 0 3.334-1.065 3.334-3.654V9.4l-1.46.001zm-1.766 5.42c-1.062 0-1.954-.89-1.954-2.112 0-1.235.891-2.138 1.954-2.138 1.05 0 1.873.902 1.873 2.138.001 1.221-.823 2.112-1.873 2.112zm4.29-9.14h1.541V15.99h-1.541V5.68zm5.767 9.14c-.784 0-1.343-.36-1.699-1.062l4.69-1.941-.162-.399c-.29-.782-1.182-2.23-3.002-2.23-1.806 0-3.308 1.42-3.308 3.506 0 1.965 1.488 3.506 3.48 3.506 1.609 0 2.54-.981 2.924-1.554l-1.196-.796c-.4.585-.945.971-1.727.97zm-.12-4.278c.61 0 1.128.306 1.3.744l-3.135 1.302c-.04-1.355 1.05-2.046 1.835-2.046zm9.875-4.862h-3.686V15.99h1.539v-3.905h2.148c1.706 0 3.383-1.235 3.383-3.203 0-1.964-1.676-3.2-3.38-3.2l-.004-.001zm.04 4.969h-2.187V7.115h2.188c1.15 0 1.805.954 1.805 1.767 0 .8-.656 1.768-1.806 1.768zm5.73 5.34V5.68h-1.538v10.31h1.538zm6.91-.019V12.02c0-1.83-1.367-2.851-3.133-2.851-1.112 0-2.265.491-2.743 1.578l1.365.57c.293-.57.835-.757 1.407-.757.795 0 1.604.478 1.616 1.328v.106a3.397 3.397 0 00-1.604-.398c-1.472 0-2.97.809-2.97 2.32 0 1.38 1.207 2.268 2.56 2.268 1.035 0 1.604-.464 1.962-1.007h.052v.797h1.487l.001-.003zm-3.316-1.152c-.504 0-1.207-.252-1.207-.874 0-.796.876-1.103 1.632-1.103.677 0 .994.146 1.407.345a1.87 1.87 0 01-1.832 1.632zm8.726-5.425L90.1 13.863h-.053l-1.83-4.469H86.56l2.744 6.247-1.566 3.475h1.605l4.23-9.722h-1.709z" fill="#808285"/><defs><linearGradient id="paint0_linear" x1="10.385" y1="1.776" x2="-6.436" y2="6.258" gradientUnits="userSpaceOnUse"><stop stop-color="#00A0FF"/><stop offset=".007" stop-color="#00A1FF"/><stop offset=".26" stop-color="#00BEFF"/><stop offset=".512" stop-color="#00D2FF"/><stop offset=".76" stop-color="#00DFFF"/><stop offset="1" stop-color="#00E3FF"/></linearGradient><linearGradient id="paint1_linear" x1="20.587" y1="11.35" x2=".077" y2="11.35" gradientUnits="userSpaceOnUse"><stop stop-color="#FFE000"/><stop offset=".409" stop-color="#FFBD00"/><stop offset=".775" stop-color="orange"/><stop offset="1" stop-color="#FF9C00"/></linearGradient><linearGradient id="paint2_linear" x1="12.951" y1="13.296" x2="-.553" y2="36.024" gradientUnits="userSpaceOnUse"><stop stop-color="#FF3A44"/><stop offset="1" stop-color="#C31162"/></linearGradient><linearGradient id="paint3_linear" x1="-1.909" y1="-5.452" x2="4.115" y2="4.699" gradientUnits="userSpaceOnUse"><stop stop-color="#32A071"/><stop offset=".069" stop-color="#2DA771"/><stop offset=".476" stop-color="#15CF74"/><stop offset=".801" stop-color="#06E775"/><stop offset="1" stop-color="#00F076"/></linearGradient></defs></svg>