<svg width="16" height="16" fill="none" xmlns="http://www.w3.org/2000/svg"><path d="M13.534.722H2.738C1.52.722.591 1.65.591 2.869v10.796c0 1.22.929 2.148 2.147 2.148h10.796c1.22 0 2.148-.929 2.148-2.148V2.87c0-1.219-.929-2.147-2.148-2.147zM8.136 12.795c2.496 0 4.528-1.974 4.528-4.354 0-.406-.058-.87-.174-1.219h1.277v6.153c0 .29-.233.58-.58.58h-10.1a.582.582 0 01-.58-.58v-6.21H3.84a4.418 4.418 0 00-.174 1.218c-.058 2.438 1.974 4.412 4.47 4.412zm0-1.742c-1.625 0-2.902-1.277-2.902-2.844s1.277-2.844 2.902-2.844c1.626 0 2.903 1.277 2.903 2.844 0 1.625-1.277 2.844-2.903 2.844zm5.573-6.21c0 .348-.29.638-.639.638h-1.625a.644.644 0 01-.639-.638V3.276c0-.349.29-.639.639-.639h1.625c.348 0 .639.29.639.639v1.567z" fill="#fff"/></svg>