<svg width="109" height="56" fill="none" xmlns="http://www.w3.org/2000/svg"><path fill-rule="evenodd" clip-rule="evenodd" d="M51.207 37.231c3.808 1.678 8.671.9 12.08-3.954h1.017l.043 3.127a17.072 17.072 0 01-3.345 2.378 15.698 15.698 0 01-13.72.404l-.199-.093h-.034a14.037 14.037 0 01-3.75-2.577 11.56 11.56 0 01-3.593-7.932v-.71c.005-2.14.595-4.24 1.707-6.069 3.545-5.631 11.774-8.267 19.311-4.712l.282.136 2.962-1.459v6.843h-1.016a10.538 10.538 0 00-4.752-3.988c-4.863-1.945-10.494.53-12.308 6.147a27.41 27.41 0 00-.15.486c-1.508 5.5 1.356 10.154 5.45 11.963l.015.01zM65.67 14.9l.793-.4-11.934-5.976-39.007 19.453 11.939 5.996 10.572-5.277a13.272 13.272 0 004.1 9.016c.976.95 2.073 1.768 3.263 2.432l-2.826 1.41 11.915 5.962 39.007-19.452-11.915-5.996-19.068 9.517h-.107l-.058.083-8.997 4.493c-4.139-.885-7.407-5.189-5.967-10.446a9.426 9.426 0 01.856-2.115l7.708-3.837a8.462 8.462 0 015.627 3.798l.486.744h3.613V14.9zM7.96 27.99L54.485 51.3l46.588-23.25-46.54-23.31L7.96 27.992zm-7.563 0l54.088 27.092 54.155-27.029L54.534.962.397 27.992z" fill="#E30611"/></svg>