<svg width="35" height="22" fill="none" xmlns="http://www.w3.org/2000/svg"><path d="M34.335 17.864v-.415h-.108l-.125.285-.124-.285h-.108v.415h.077v-.313l.116.27h.08l.117-.27v.313h.076zm-.685 0v-.344h.139v-.07h-.354v.07h.139v.344h.076z" fill="#F79410"/><path d="M22.067 19.641h-9.34V2.854h9.34v16.787z" fill="#FF5F00"/><path d="M13.319 11.247c0-3.405 1.594-6.438 4.077-8.393A10.63 10.63 0 0010.799.57C4.903.571.124 5.351.124 11.247c0 5.897 4.78 10.676 10.675 10.676a10.63 10.63 0 006.597-2.282 10.658 10.658 0 01-4.077-8.394z" fill="#EB001B"/><path d="M34.67 11.248c0 5.897-4.78 10.676-10.675 10.676a10.63 10.63 0 01-6.599-2.282 10.656 10.656 0 004.078-8.394c0-3.405-1.594-6.438-4.078-8.393A10.632 10.632 0 0123.994.572c5.896 0 10.675 4.78 10.675 10.676" fill="#F79E1B"/></svg>