<svg width="37" height="19" fill="none" xmlns="http://www.w3.org/2000/svg"><path d="M2.378 9.437l15.908-7.721 16.479 8.187-16.116 8.032L2.378 9.437z" fill="#fff"/><path fill-rule="evenodd" clip-rule="evenodd" d="M17.424 12.613c1.237.545 2.817.292 3.924-1.284h.33l.014 1.016c-.33.3-.695.56-1.087.772a5.099 5.099 0 01-4.455.131l-.065-.03h-.01a4.559 4.559 0 01-1.219-.837 3.754 3.754 0 01-1.167-2.576v-.23a3.815 3.815 0 01.554-1.972c1.152-1.829 3.824-2.685 6.272-1.53l.092.044.962-.474v2.222h-.33a3.422 3.422 0 00-1.543-1.295c-1.58-.631-3.409.173-3.998 1.997a8.677 8.677 0 00-.049.158c-.49 1.786.44 3.298 1.77 3.885l.005.003zm4.698-7.252l.257-.13-3.876-1.941L5.835 9.608l3.877 1.947 3.434-1.714a4.31 4.31 0 001.331 2.929c.317.308.674.574 1.06.79l-.918.457 3.87 1.937 12.668-6.318-3.87-1.947-6.192 3.09h-.035l-.019.027-2.922 1.46c-1.344-.288-2.405-1.685-1.938-3.393.065-.24.158-.47.278-.687l2.504-1.246a2.748 2.748 0 011.827 1.233l.158.242h1.174V5.361zM3.379 9.612l15.11 7.57 15.13-7.55-15.114-7.57-15.126 7.55zm-2.456 0l17.566 8.8 17.588-8.78L18.505.835.923 9.612z" fill="#E30611"/></svg>