<svg width="16" height="14" fill="#bfbebe" xmlns="http://www.w3.org/2000/svg"><path d="M14.076 2.666h-2.313v-.238A1.924 1.924 0 009.839.505H6.16a1.924 1.924 0 00-1.923 1.923v.238H1.923A1.924 1.924 0 000 4.589v6.982c0 1.062.861 1.923 1.923 1.923h12.154A1.924 1.924 0 0016 11.571V4.589a1.925 1.925 0 00-1.924-1.923zm-6.077 8.833a3.637 3.637 0 01-3.633-3.633A3.637 3.637 0 018 4.233a3.637 3.637 0 013.633 3.633A3.637 3.637 0 018 11.499zm1.924-3.633c0 1.06-.864 1.923-1.924 1.923a1.927 1.927 0 01-1.923-1.923c0-1.06.863-1.923 1.923-1.923s1.924.863 1.924 1.923z"/></svg>