<svg width="23" height="24" fill="none" xmlns="http://www.w3.org/2000/svg"><path d="M20.559 5.052c.541.709 1 1.48 1.365 2.295L11.547 15.1 7.21 12.345V9.03l4.337 2.755 9.012-6.733z" fill="#21A038"/><path d="M2.784 12.11c0-.149.004-.296.01-.443l-2.627-.13a11.648 11.648 0 00.851 4.993 11.525 11.525 0 002.471 3.742l1.864-1.888a8.856 8.856 0 01-1.902-2.877 8.95 8.95 0 01-.667-3.397z" fill="url(#paint0_linear)"/><path d="M11.545 3.232c.147 0 .292.005.437.013L12.114.58a11.23 11.23 0 00-4.93.862A11.352 11.352 0 003.49 3.947l1.865 1.89a8.723 8.723 0 012.839-1.93 8.628 8.628 0 013.352-.675z" fill="url(#paint1_linear)"/><path d="M11.544 20.988c-.146 0-.292 0-.438-.011l-.131 2.663a11.221 11.221 0 004.928-.862 11.345 11.345 0 003.693-2.505l-1.861-1.888a8.73 8.73 0 01-2.839 1.927 8.632 8.632 0 01-3.352.676z" fill="url(#paint2_linear)"/><path d="M16.483 4.781l2.215-1.654A11.247 11.247 0 0011.54.565v2.667a8.635 8.635 0 014.942 1.55z" fill="url(#paint3_linear)"/><path d="M22.937 12.11a11.77 11.77 0 00-.18-2.069l-2.451 1.831v.238c0 1.24-.256 2.467-.753 3.6a8.852 8.852 0 01-2.133 2.98l1.768 1.981a11.51 11.51 0 002.772-3.877 11.64 11.64 0 00.977-4.684z" fill="#21A038"/><path d="M11.544 20.99a8.644 8.644 0 01-3.553-.764 8.749 8.749 0 01-2.94-2.162l-1.954 1.792a11.368 11.368 0 003.825 2.81c1.455.654 3.03.991 4.622.99v-2.667z" fill="url(#paint4_linear)"/><path d="M5.67 5.53L3.902 3.549A11.51 11.51 0 001.13 7.425a11.646 11.646 0 00-.978 4.685h2.632c0-1.24.256-2.467.753-3.6A8.852 8.852 0 015.67 5.53z" fill="url(#paint5_linear)"/><defs><linearGradient id="paint0_linear" x1="4.021" y1="19.94" x2="1.077" y2="11.54" gradientUnits="userSpaceOnUse"><stop offset=".14" stop-color="#F1E813"/><stop offset=".3" stop-color="#E6E418"/><stop offset=".58" stop-color="#C9DA26"/><stop offset=".89" stop-color="#A2CC39"/></linearGradient><linearGradient id="paint1_linear" x1="4.241" y1="4.419" x2="11.672" y2="1.624" gradientUnits="userSpaceOnUse"><stop offset=".06" stop-color="#0FA7DF"/><stop offset=".54" stop-color="#0098F8"/><stop offset=".92" stop-color="#0290EA"/></linearGradient><linearGradient id="paint2_linear" x1="10.801" y1="22.046" x2="19.187" y2="20.176" gradientUnits="userSpaceOnUse"><stop offset=".12" stop-color="#A2CC39"/><stop offset=".28" stop-color="#86C239"/><stop offset=".87" stop-color="#219F38"/></linearGradient><linearGradient id="paint3_linear" x1="10.994" y1="1.458" x2="18.17" y2="3.644" gradientUnits="userSpaceOnUse"><stop offset=".06" stop-color="#0290EA"/><stop offset=".79" stop-color="#0C89CA"/></linearGradient><linearGradient id="paint4_linear" x1="3.757" y1="19.531" x2="11.576" y2="22.415" gradientUnits="userSpaceOnUse"><stop offset=".13" stop-color="#F1E813"/><stop offset=".3" stop-color="#EAE616"/><stop offset=".53" stop-color="#D8DF1F"/><stop offset=".8" stop-color="#BAD52D"/><stop offset=".98" stop-color="#A2CC39"/></linearGradient><linearGradient id="paint5_linear" x1="1.133" y1="12.433" x2="4.335" y2="4.214" gradientUnits="userSpaceOnUse"><stop offset=".07" stop-color="#A2CC39"/><stop offset=".26" stop-color="#81C45E"/><stop offset=".92" stop-color="#0FA7DF"/></linearGradient></defs></svg>