<svg width="26" height="33" fill="none" xmlns="http://www.w3.org/2000/svg"><path d="M9.203 15.751l-1.515.697 1.61 1.44.169-1.092-.264-1.045z" fill="#292525"/><path d="M8.099 29.435l.592-1.137 1.597.46-.23 1.548-1.367-.17-.592-.701zm8.91-7.57l-1.08 1.694 1.374.981h1.3l-.367-1.865-1.227-.81z" fill="#E30611" stroke="#292525" stroke-width=".057" stroke-linecap="round" stroke-linejoin="round"/><path d="M18.31 25.953l-.847-.948v-.274h1.172l-.324-.773v-1.322l.573-.224 2.12-1.197h.973l-.5 2.07-2.593 2.967-.573-.299z" fill="#fff" stroke="#292525" stroke-width=".057" stroke-linecap="round" stroke-linejoin="round"/><path d="M5.245 14.025l-.601-3.815.465-2.944 2.759-1.798h2.862l1.302.26-.365 1.538.77.626.872-.626 2.612 8.459-1.534-.374-.601.747 1.637 3.337-3.233.228-2.944-1.762v-1.803L4.644 17.3l.725-1.949-.124-1.326z" fill="#E8AB55"/><path d="M13.791 15.993c.392-.126.505-.275.593-.623l-.289-.076-.957-2.918-.927.213-1.626.288.213 1.353 2.34-.122.653 1.885z" fill="#292525"/><path d="M11.582 28.663h-1.297l-.118 1.73 1.18.156.235-.59v-1.296zm4.501-5.346l.963-1.337-.707-.786-1.12.315-.138 1.808h1.002zm-10.61-3.302l.145.892-1.057.477-.27 1.845.436 1.7-.436.248-1.637.705-.436-.394-.767-1.948 1.078-1.327 1.203-2.198.995-.808.746.808z" fill="#EFCF9E"/><path d="M4.726 23.705l1.265-2.031.953.974-.394 2.591-1.14 1.14-1.451.477v-.995l.767-1.14v-1.016z" fill="#EFCF9E"/><path d="M13.222 3.922l2.044-1.135-1.28-.952h-1.242l-.115-.459-1.776-.478H8.599l-1.204.593-.382-.287-.974.401-3 2.317L1.32 6.935l.344.84-.611.784-.306 2.235 1.05 3.63.421.248-.898 1.681 1.127-.23.955-.974.669-1.719.172-2.636.554-3.018 2.332-2 2.498-.605 2.27.606 1.325-1.855z" fill="#E30611"/><path d="M15.929 23.51l1.08-1.62 1.447 1.129v.687l-.196.76-.859.516-1.472-1.473z" stroke="#292525" stroke-width=".001" stroke-linecap="round" stroke-linejoin="round"/><path d="M12.272 22.258l2.871-.86-.392 4.296-2.48-.197.884 2.381-1.693.614H9.376l-.172-1.841-.81-1.325-1.533-3.735-1.306-.87-.6-1.825 3.254-1.68 2.384 1.68.083 1.223 1.596 2.139z" fill="#E30611" stroke="#292525" stroke-width=".001" stroke-linecap="round" stroke-linejoin="round"/><path d="M6.882 21.674l3.648-1.243.374.414-3.338 2.136-.684-1.307z" fill="#fff" stroke="#292525" stroke-width=".001" stroke-linecap="round" stroke-linejoin="round"/><path d="M11.872 5.655c.61-1.368 1.312-2.012 3.416-2.866l-1.322-1.025c-.62.05-.966.146-1.574.55l.416-.906c-1.934-.766-3.02-.854-4.96-.342l-.312.698-.416-.698C3.636 2.696 2.413 4.074 1.33 7.23l.327.609C1.32 8.17.683 9.146.825 10.393c.143 1.247.614 3.272.832 4.128h.55c-.036.307-.194 1.007-.55 1.351a9.684 9.684 0 01-.966.802c.49.124 1.67.05 2.465-1.232.796-1.283.877-2.02.817-2.228v-.237l.297-.223" stroke="#292525" stroke-width=".6" stroke-linecap="round" stroke-linejoin="round"/><path d="M11.55 7.398c.124-.623.273-.97.705-1.581-1.777-.61-2.791-.847-4.782-.248-1.76.861-2.434 1.565-3.01 3.258-.463 1.621-.557 2.54-.115 4.211l.571-.133M15.5 19.42c-2.708.923-4.46.14-7.9-2.99" stroke="#292525" stroke-width=".6" stroke-linecap="round" stroke-linejoin="round"/><path d="M15.522 19.375c-1.282-2.094-1.803-3.264-2.4-5.346l-2.357.218-.175-1.396c.976-.097 1.528-.196 2.531-.502l.96 2.946 1.877.676c-1.276-3.539-1.845-5.526-2.553-9.077-2.617 3.312-4.442 4.865-8.292 7.135l.48 1.397-1.353 2.182c1.92-.554 3.013-.947 5.02-1.92.267 1.156.277 1.647 0 2.184l-.998-.822 1.14-.669M8.378 30.166l.634-.1 2.265.633c.302-.602.361-1.053.302-2.033m-1.299-.04c.079.847.043 1.23-.221 1.681m7.406-5.076l.243-.769c.4.14.607.154.961.128.013-.37-.064-.585-.282-.973l.116-.346-.18-.436-.115-1.218.64.936a6.37 6.37 0 011.205-.936c.742-.424 1.17-.56 1.948-.666.123.665-.12 1.345-1 2.999-.697 1.2-1.175 1.69-2.152 2.306-.56-.256-.867-.459-1.384-1.025zm-6.382-4.382L7.29 22.925m3.55-2.654c-1.765.306-2.625.565-3.858 1.23" stroke="#292525" stroke-width=".6" stroke-linecap="round" stroke-linejoin="round"/><path d="M7.765 20.17l-1.871 1.666c-.161-1.278-.44-1.926-1.294-2.96l3.322-1.427.474-.445m-3.028 3.973c.122.335.235.526.513.87" stroke="#292525" stroke-width=".6" stroke-linecap="round" stroke-linejoin="round"/><path d="M4.792 19.195l-1.013.782-1.191 2.178-1.333 1.474.935 1.448-.14.385.704.692c.468-.42.74-.698 1.282-1.423" stroke="#292525" stroke-width=".6" stroke-linecap="round" stroke-linejoin="round"/><path d="M5.56 20.81l-.653.372-.705 1.833.603 1.255-.603 1.333-.666-.14" stroke="#292525" stroke-width=".6" stroke-linecap="round" stroke-linejoin="round"/><path d="M5.83 21.745l-.744 1.538-.576.333m1.73-1.986l.73.666m.038.026l-.474 1.615v1.46c-.514.411-.714.677-.871 1.23l-.897-.794.525-.704-.525-.859M4.1 25.615V26l-.359.102.359.82c.42-.097.665-.198 1.14-.602" stroke="#292525" stroke-width=".6" stroke-linecap="round" stroke-linejoin="round"/><path d="M5.54 29.82c.373-.933.949-2.07 1.19-2.521.742.075 1.539.526 1.844.742-.025.19-.08.609-.103.751-.022.143-.404.473-.592.62.037.027.159.147.345.409.187.261.374.747.444.957l-.91-.327c-.195.303-.673.995-1.028 1.33-.355.337-1.424.437-1.915.444.086-.412.35-1.47.724-2.404z" fill="#fff" stroke="#292525" stroke-width=".6" stroke-linecap="round" stroke-linejoin="round"/><path d="M8.594 28.16c.158.098.607.318 1.131.41.656.116 1.479.194 2.276-.064.638-.205 1.029-.445 1.144-.54l-.81-2.584c-.051-.279-.07-.98.27-1.556m-3.433 4.59l.09-1.35" stroke="#292525" stroke-width=".6" stroke-linecap="round" stroke-linejoin="round"/><path d="M8.375 25.42c.234.441.416.677.874 1.068l-.244.502c.124.068.468.185.849.102M7.99 25.575c.66-.433 2.12-1.404 2.687-1.826.565-.422 1.332-1.136 1.645-1.44-1.119-1.04-1.564-1.717-1.645-3.293m-3.797 2c.253 1.828.506 2.826 1.129 4.562" stroke="#292525" stroke-width=".6" stroke-linecap="round" stroke-linejoin="round"/><path d="M12.352 25.5l2.511.243c-.01-1.892.09-2.86.474-4.42-1.43.53-2.099.747-3.1.999" stroke="#292525" stroke-width=".6" stroke-linecap="round" stroke-linejoin="round"/><path d="M14.953 23.373h.769l1.768 1.512M15.17 21.4l.91-.206 2.282 1.666m-1.268-.91c-.571.47-.82.82-1.14 1.615m-3.57-15.547C10.505 6.653 9.476 6.37 7.695 6.886c-1.575.725-2.2 1.375-2.86 2.96-.348 1.694-.195 2.568.496 4.033M14.594 15c-.057.204-.256.522-.594.614" stroke="#292525" stroke-width=".6" stroke-linecap="round" stroke-linejoin="round"/><circle cx="22.215" cy="16.429" r="2.828" fill="#fff" stroke="#292525" stroke-width=".6"/><path d="M20.016 14.69l.672-.682v1.062l-1.043.3.371-.68zm.421 3.256l-.792-.581.11.47.682.852v-.741z" fill="#E30611"/><circle cx="22.215" cy="16.429" r="2.828" stroke="#292525" stroke-width=".6"/><path d="M23.087 14.915l1.082.698v1.57l-1.082.663a4.202 4.202 0 00-1.303-.605c.106-.623.07-.98-.093-1.628.663-.228.963-.383 1.396-.698z" fill="#E30611" stroke="#292525" stroke-width=".6" stroke-linecap="round" stroke-linejoin="round"/><path d="M19.552 17.31l.884.605.104.768m.106-4.606l.081.966-1.105.372m3.162-1.711c.301.495.301.701.292 1.246m-2.396.023l.988.651m-1.268 2.28c.582-.173.912-.26 1.396-.698m1.28.604c.03.583-.001.787-.163 1.314m1.233-1.987l.673.335m-.114-2.302l-.548.454" stroke="#292525" stroke-width=".6" stroke-linecap="round" stroke-linejoin="round"/></svg>