<svg width="19" height="20" fill="none" xmlns="http://www.w3.org/2000/svg"><path fill-rule="evenodd" clip-rule="evenodd" d="M18.725 10.268a9.297 9.297 0 11-18.594 0 9.297 9.297 0 0118.594 0zm-8.465-2.66C8.648 8.278 4 10.186 4 10.186c-1.102.43-.457.833-.457.833s.94.322 1.746.564c.806.242 1.236-.027 1.236-.027s1.881-1.236 3.789-2.552c1.343-.914 1.021-.162.698.16-.698.7-1.853 1.801-2.82 2.688-.43.376-.216.699-.028.86.547.463 1.836 1.304 2.42 1.687.163.105.27.176.294.194.134.107.887.59 1.344.483.456-.107.51-.725.51-.725s.35-2.204.672-4.219l.175-1.144c.145-.939.262-1.701.282-1.973.08-.913-.887-.537-.887-.537s-2.096.86-2.714 1.128z" fill="#fff"/></svg>