<svg width="30" height="29" fill="none" xmlns="http://www.w3.org/2000/svg"><path d="M25.673 6.049l.585 3.46H3.645l22.028-3.46z" fill="#E30611"/><path d="M2.085 14.334V9.655h25.538v4.679l-1.17.39-.974 1.413.39 1.755 1.754.877v4.728H2.085v-4.728l1.462-.536.536-1.316-.536-1.9-1.462-.683z" fill="#E8AB55"/><path d="M27.602 14.746c.223 0 .379-.178.401-.378V9.517c0-.223-.178-.379-.4-.401h-1.069l-.467-3.182c-.022-.223-.223-.356-.445-.334l-6.03.89h-.023L1.945 9.138s-.334.067-.334.379v4.828c0 .223.178.379.378.401.98 0 1.758.779 1.758 1.758 0 .98-.778 1.758-1.758 1.758-.222 0-.378.178-.4.378v4.83c0 .222.178.377.4.4H27.58c.223 0 .379-.178.4-.4v-4.807c0-.223-.177-.379-.378-.401a1.748 1.748 0 01-1.758-1.758c0-.98.78-1.758 1.758-1.758zm-8.3-7.41l.156 1.046c.022.2.2.333.378.333h.067c.223-.022.356-.222.334-.445l-.156-1.045 5.274-.78.4 2.693H7.264l12.04-1.802zm7.922 11.683v4.094h-5.763v-1.068c0-.223-.178-.4-.4-.4a.398.398 0 00-.401.4v1.068H2.412v-4.095c1.38-.222 2.337-1.513 2.114-2.892-.178-1.09-1.023-1.959-2.114-2.114V9.917h18.27v1.046c0 .223.178.4.4.4.223 0 .4-.178.4-.4V9.895h5.764v4.094c-1.38.223-2.336 1.514-2.114 2.893.134 1.113.98 1.958 2.092 2.136z" fill="#292525"/><path d="M21.06 17.105c-.223 0-.379.177-.4.378v2.581c0 .223.177.4.4.4.222 0 .4-.177.4-.4v-2.559c0-.223-.178-.4-.4-.4zm0-4.54c-.223 0-.379.178-.4.379v2.581c0 .223.177.4.4.4.222 0 .4-.177.4-.4v-2.581c0-.2-.178-.379-.4-.379zm-14.42.623h4.83c.222 0 .4-.178.4-.4 0-.223-.178-.379-.4-.379H6.64c-.222 0-.4.178-.4.4 0 .223.178.379.4.379zm9.659 1.691H6.64c-.223 0-.4.178-.4.4 0 .223.177.401.4.401h9.658c.222 0 .4-.178.4-.4a.399.399 0 00-.4-.401zm0 2.471H6.64c-.223 0-.4.178-.4.4 0 .223.177.4.4.4h9.658c.222 0 .4-.177.4-.4 0-.222-.178-.4-.4-.4zm0 2.47H6.64c-.223 0-.4.177-.4.4 0 .222.177.4.4.4h9.658c.222 0 .4-.178.4-.4 0-.223-.178-.4-.4-.4z" fill="#292525"/></svg>