<svg width="66" height="22" fill="none" xmlns="http://www.w3.org/2000/svg"><path d="M28.19 21.304h-5.303L26.201.936h5.304L28.19 21.304zM18.426.936l-5.055 14.01-.598-3.017L10.99 2.77S10.773.936 8.473.936H.116l-.098.345s2.555.532 5.546 2.328l4.608 17.696h5.525L24.133.936h-5.707zm41.71 20.368h4.869L60.76.936h-4.263c-1.969 0-2.448 1.518-2.448 1.518l-7.909 18.85h5.528l1.105-3.025h6.741l.622 3.025zM54.3 14.1l2.787-7.622 1.567 7.622H54.3zm-7.745-8.265l.756-4.374S44.976.572 42.542.572c-2.632 0-8.88 1.15-8.88 6.743 0 5.262 7.334 5.327 7.334 8.091 0 2.764-6.579 2.269-8.75.526l-.789 4.573s2.368 1.15 5.986 1.15c3.619 0 9.078-1.873 9.078-6.973 0-5.295-7.4-5.789-7.4-8.091 0-2.303 5.164-2.007 7.434-.757z" fill="#2566AF"/><path d="M12.773 11.93L10.99 2.77S10.773.935 8.473.935H.116l-.098.344s4.017.833 7.87 3.952c3.684 2.981 4.885 6.697 4.885 6.697z" fill="#E6A540"/></svg>