<svg width="25" height="15" fill="none" xmlns="http://www.w3.org/2000/svg"><path d="M24.042 12.78c0-.096-.095-.096-.095-.19-.38-.76-1.235-1.711-2.376-2.757-.57-.475-.855-.855-1.045-1.045-.285-.38-.285-.665-.19-1.045.095-.285.475-.76 1.14-1.616.38-.475.57-.76.855-1.045 1.426-1.9 2.091-3.136 1.901-3.707l-.095-.095c-.095-.095-.19-.19-.38-.19-.19-.095-.475-.095-.76 0H18.72l-.095.095c-.095.095-.095.095-.095.19-.38 1.046-.855 1.901-1.33 2.851-.285.476-.57.95-.855 1.33-.286.381-.476.666-.666.856-.19.19-.38.285-.475.475-.095.095-.285.19-.285.095-.095 0-.19 0-.19-.095l-.285-.285c-.095-.095-.095-.285-.19-.475V1.376c0-.096-.095-.286-.095-.38L13.874.71c-.095-.095-.286-.095-.38-.19a8.524 8.524 0 00-1.711-.19c-1.52 0-2.566.095-2.946.285-.19.095-.38.19-.475.38-.19.19-.19.285-.095.285.475.095.855.285 1.045.57l.095.19c.095.096.095.286.19.57.095.286.095.571.095.951v1.52c0 .476-.095.761-.095 1.046 0 .285-.095.475-.19.57-.095.19-.095.285-.19.285 0 0 0 .095-.095.095s-.19.095-.38.095c-.095 0-.285-.095-.38-.19a1.145 1.145 0 01-.475-.475c-.19-.19-.38-.475-.57-.855-.19-.38-.476-.76-.666-1.33l-.19-.38c-.095-.19-.285-.57-.475-1.046-.19-.475-.38-.855-.57-1.33a1.312 1.312 0 00-.285-.38h-.095s-.096-.096-.19-.096c-.096 0-.19-.095-.286-.095H1.14c-.381 0-.571.095-.666.19l-.095.095v.19c0 .096 0 .19.095.38.475 1.141 1.045 2.281 1.616 3.422.57 1.045 1.14 1.995 1.52 2.66.475.666.855 1.331 1.33 1.901.476.57.76.95.856 1.14l.38.38.285.286c.19.19.475.475.855.76.38.285.856.57 1.33.856.476.285 1.046.475 1.616.665.666.19 1.236.285 1.806.19h1.425c.286 0 .476-.095.666-.285l.095-.095c0-.095.095-.095.095-.19v-.38c0-.38 0-.666.095-.95.095-.286.095-.476.19-.666.095-.19.19-.285.285-.38l.19-.19h.095c.19-.095.475 0 .665.19.285.19.57.475.76.76.19.285.476.57.856.95s.665.666.855.76l.285.19c.19.096.38.19.666.286.285.095.475.095.665.095l3.23-.095c.286 0 .571-.095.761-.19.19-.095.285-.19.285-.38v-.38c-.19-.19-.19-.286-.19-.38z" fill="#fff"/></svg>