<svg width="32" height="33" fill="none" xmlns="http://www.w3.org/2000/svg"><g clip-path="url(#clip0)"><path d="M16 32.481c8.837 0 16-7.163 16-16 0-8.836-7.163-16-16-16s-16 7.164-16 16c0 8.837 7.163 16 16 16z" fill="#4D76A1"/><path fill-rule="evenodd" clip-rule="evenodd" d="M15.395 23.499h1.256s.38-.042.573-.25c.178-.192.173-.552.173-.552s-.025-1.685.757-1.933c.771-.245 1.761 1.628 2.81 2.348.794.545 1.397.426 1.397.426l2.805-.04s1.468-.09.772-1.244c-.057-.094-.405-.853-2.086-2.413-1.76-1.633-1.524-1.37.596-4.194 1.29-1.72 1.806-2.77 1.645-3.22-.154-.428-1.103-.315-1.103-.315l-3.159.02s-.234-.032-.408.072c-.17.101-.279.339-.279.339s-.5 1.33-1.166 2.463c-1.407 2.389-1.97 2.515-2.2 2.366-.534-.345-.4-1.388-.4-2.13 0-2.314.35-3.28-.684-3.53-.344-.082-.597-.137-1.475-.146-1.127-.011-2.081.004-2.621.268-.36.176-.637.569-.468.591.209.028.682.127.932.469.324.44.313 1.43.313 1.43s.186 2.724-.435 3.063c-.425.232-1.01-.242-2.264-2.41-.642-1.11-1.127-2.336-1.127-2.336s-.094-.23-.26-.352c-.203-.149-.486-.196-.486-.196l-3.002.02s-.45.012-.616.208c-.147.174-.012.535-.012.535s2.35 5.498 5.011 8.27c2.44 2.54 5.211 2.373 5.211 2.373z" fill="#fff"/></g><defs><clipPath id="clip0"><path fill="#fff" transform="translate(0 .481)" d="M0 0h32v32H0z"/></clipPath></defs></svg>