<svg width="27" height="29" fill="none" xmlns="http://www.w3.org/2000/svg"><path d="M10.522 6.126h5.111l2.573.44.913 1.625.305 4.366-1.218 3.08-2.584 1.828.853 1.61-2.32.58-2.527-.58.273-1.61-1.379-.914-1.658-2.539-.508-4.13.779-2.774 1.387-.982z" fill="#EFCF9E"/><path d="M19.274 8.8v3.414h1.093l.477-1.707-.239-2.935 1.059-2.117-2.117-1.98-2.116-.921v-.512l-4.3-.717-3.482 1.229L7.294 6.24l-.205 4.267.614 1.263.99.273V8.015l.956-1.092 1.604-.683h5.837l1.536.683.648 1.877z" fill="#A28E5D"/><path d="M17.567 27.914l4.71-1.365v-2.594l-.75-2.287-2.048-1.57-1.912-.239-1.33-.956-2.083.683h-1.365l-1.297-.478.273-.887-.888 1.638H9.512l-2.696 1.16-1.263 2.322v3.208l1.263.512 4.676.853h6.075z" fill="#E30611"/><path d="M22.72 23.947v2.567a.434.434 0 11-.868 0v-2.567a3.614 3.614 0 00-3.616-3.616 2.668 2.668 0 01-2.295-1.289.434.434 0 11.742-.452c.332.546.913.872 1.553.872a4.482 4.482 0 014.485 4.485zm-7.582-4.356a.434.434 0 01-.332.517c-1.143.25-2.306 0-3.232-.632-.917.982-2.128.855-1.966.855a3.614 3.614 0 00-3.616 3.616v2.567a.434.434 0 11-.869 0v-2.567a4.482 4.482 0 014.485-4.485 1.811 1.811 0 001.815-1.81v-.115a5.821 5.821 0 01-3.309-5.032 1.773 1.773 0 01-1.362-1.718V8.535c-.023-1.103.14-3.864 2.154-5.805C11.392.333 15.379.486 18.31 1.897c.286.138.33.524.092.724a5.865 5.865 0 013.588 2.582c.043.067.12.173.1.341a.44.44 0 01-.124.276 2.837 2.837 0 00-.821 2.004v2.964a.435.435 0 01-.87 0V7.824c0-.871.298-1.698.845-2.362a5.02 5.02 0 00-3.603-2.115l-.764-.082c-.446-.048-.534-.663-.119-.834l.348-.143C12.459.711 7.62 2.463 7.62 8.53v2.258c0 .344.199.644.49.794V8.767a3.045 3.045 0 013.04-3.042h5.54a3.045 3.045 0 013.042 3.041v3.558c0 3.779-3.692 6.65-7.45 5.543-.024.31-.101.61-.227.887a3.29 3.29 0 002.565.506.435.435 0 01.517.332zm-1.216-2.358a4.948 4.948 0 004.942-4.943V8.765a2.175 2.175 0 00-2.172-2.172h-5.54a2.175 2.175 0 00-2.173 2.173v3.524a4.948 4.948 0 004.943 4.943zm4.4 7.488h-1.304a.434.434 0 100 .87h1.303a.435.435 0 000-.87z" fill="#292525"/><path d="M14.678 19.724c.771-.241 1.06-.45 1.59-.949m4.439-8.085c-.043.987-.124 1.43-1.286 1.633" stroke="#292525" stroke-width=".88" stroke-linecap="round" stroke-linejoin="round"/><path d="M16.353 18.915c-.221-.287-.297-.429-.485-1.434M5.542 26.567c4.032 1.837 13.632 1.91 16.824 0" stroke="#292525" stroke-width=".926" stroke-linecap="round" stroke-linejoin="round"/></svg>