<svg width="129" height="51" fill="none" xmlns="http://www.w3.org/2000/svg"><path fill-rule="evenodd" clip-rule="evenodd" d="M8.72 8.7l-.925-6.19H6.092L4.625 5.875 3.171 2.51H1.46L.53 8.7h1.729l.476-3.561L4.37 8.713h.502L6.49 5.139l.483 3.56H8.72zm5.172-6.19L11.44 5.823V2.51H9.751V8.7h1.305l2.465-3.3v3.3h1.708V2.51h-1.336zm6.32 0v2.23h-1.858V2.51h-1.722V8.7h1.721V6.318h1.833v2.38h1.722V2.51h-1.696zm7.246 0l-2.452 3.313V2.51h-1.67V8.7h1.305l2.465-3.3v3.3h1.689V2.51h-1.337zm2.609 4.494h3.26V5.51h-3.26v1.494zm11.85-1.422a3.111 3.111 0 00-2.968-3.196V1.67h-1.682v.763a3.209 3.209 0 000 6.398v.9h1.676v-.9a3.124 3.124 0 002.974-3.248zm-5.922 0a1.623 1.623 0 011.344-1.683v3.366a1.63 1.63 0 01-1.344-1.683zm2.883 1.683V3.899a1.728 1.728 0 010 3.366zm7.278-4.78l-.9 2.556-1.167-2.557h-1.957l2.244 4.298a.971.971 0 01-.913.378h-.45v1.546h.547c1.357 0 2.094-.554 2.72-2.06l1.715-4.162h-1.839zm7.279 0H48.36v1.532h1.683v4.65h1.709v-4.65h1.695V2.484h-.013zm3.678 2.243h-1.057V3.99h2.55V2.484H54.42v6.19h2.707a1.957 1.957 0 100-3.914l-.013-.032zm-.313 2.57h-.744V6.083h.757a.606.606 0 010 1.213H56.8zm6.476 1.525a3.261 3.261 0 10-3.411-3.26 3.202 3.202 0 003.41 3.26zm0-1.584A1.663 1.663 0 1164.9 5.576a1.595 1.595 0 01-1.624 1.663zm5.498-4.755l-.43 3.646c-.079.691-.346.998-.874.998h-.294v1.565h.496c1.395 0 2.171-.828 2.36-2.498l.242-2.152h1.193v4.63h1.71V2.484h-4.403zm8.44 1.794h-.94V2.484H74.59v6.19h2.61a2.198 2.198 0 000-4.396h.013zm-.21 2.928h-.73v-1.46h.737a.73.73 0 010 1.46h-.007zM84.1 2.51v2.23h-1.89V2.51h-1.722V8.7h1.722V6.318h1.89v2.38h1.722V2.51H84.1zm5.746 1.794H88.9V2.51h-1.682V8.7h2.608a2.198 2.198 0 100-4.396h.02zm2.85-1.794V8.7h1.722V2.51h-1.722zm-3.059 4.722H88.9v-1.46h.737a.73.73 0 010 1.46zm7.507-5.322h2.837V.756h-2.837V1.91zm2.785.6l-2.446 3.313V2.51h-1.676V8.7h1.304l2.459-3.3v3.3h1.676V2.51h-1.317zm10.167 6.19l-2.165-3.19 1.956-2.993h-1.956l-1.637 2.608V2.517h-1.709v6.189h1.689V5.973l1.774 2.733 2.048-.007zm1.957-6.19l-.431 3.646c-.078.691-.345.998-.874.998h-.293v1.565h.496c1.395 0 2.171-.828 2.36-2.498l.242-2.152h1.193v4.63h1.709V2.51h-4.402zm9.241 0l-.906 2.557-1.168-2.557h-1.956l2.243 4.298a.967.967 0 01-.913.378h-.443v1.546h.515c1.356 0 2.093-.554 2.719-2.06l1.716-4.162h-1.807zm5.348 2.244h-1.076v-.737h2.55V2.51h-4.233V8.7h2.707a1.955 1.955 0 100-3.914l.052-.032zm-.313 2.57h-.756V6.11h.756a.607.607 0 010 1.213zM50.5 49.865l-.965-6.268h-1.696l-1.487 3.411-1.474-3.41H43.15l-.946 6.267h1.748l.483-3.607 1.663 3.62h.508l1.663-3.62.49 3.613 1.74-.006zm4.565.157a3.3 3.3 0 10-3.45-3.261 3.26 3.26 0 003.45 3.26zm0-1.605a1.69 1.69 0 111.644-1.689 1.616 1.616 0 01-1.644 1.69zm8.016 1.605a3.131 3.131 0 003.189-2.766h-1.735a1.44 1.44 0 01-1.422 1.148 1.683 1.683 0 010-3.359 1.487 1.487 0 011.415 1.063h1.748a3.11 3.11 0 00-3.17-2.674 3.294 3.294 0 000 6.588h-.026zm10.278-.157l-2.191-3.261 2.008-3.04h-2.002l-1.656 2.642v-2.641h-1.722v6.267h1.728v-2.771l1.8 2.771 2.035.033zm5.133-3.313a1.598 1.598 0 00.795-1.357c0-.926-.808-1.604-1.924-1.604h-2.83v6.267h2.889a1.877 1.877 0 002.035-1.786 1.65 1.65 0 00-.959-1.527l-.006.007zm-.848-1.07a.528.528 0 01-.58.548h-.875v-1.089h.874a.527.527 0 01.58.548v-.007zm-.516 2.961h-.939v-1.122h.94a.575.575 0 110 1.142v-.02zm7.898 1.415h1.898l-2.517-6.267h-1.69l-2.458 6.267h1.885l.346-1.023h2.217l.346 1.023h-.026zm-.77-2.373h-1.375l.685-1.957.69 1.956zM4.997 26.335c0-2.707 1.61-4.48 4.082-4.48 1.748 0 2.987.651 3.568 2.327h4.102C16.097 19.82 12.432 18 9.08 18 4.905 18 .731 20.726.731 26.348c0 5.504 4.174 8.302 8.348 8.302 3.476 0 7.09-1.846 7.716-6.483h-4.103c-.443 1.774-1.839 2.609-3.613 2.609-2.497 0-4.082-2.074-4.082-4.428v-.013zm113.017-2.016v-6.26h-4.298v16.434h4.298v-6.606h1.956l3.665 6.606h4.859v-.652l-4.917-7.826 4.748-7.37v-.652h-4.696l-3.567 6.261-2.048.065zm-17.89-6.313l-7.487 15.907v.58h4.455l.932-2.028h6.111l.959 2.028h4.441v-.58L102.1 18.006h-1.976zm.959 6.953l1.702 3.913H99.4l1.683-3.913zm-23.479-6.79v3.718h4.011V34.48h4.129V21.887h3.984v-3.718H77.605zm-16.741 0v16.305h4.324v-4.246h2.935c3.874 0 5.87-2.987 5.87-5.96 0-2.975-1.957-6.125-5.87-6.125h-7.174l-.085.026zm4.2 3.711h3.006c1.168 0 1.774 1.135 1.774 2.296 0 1.16-.652 2.367-1.774 2.367h-3.006V21.88zm-17.818-3.874l-7.454 15.907v.58h4.454l.933-2.028h6.11l.96 2.028h4.408v-.58l-7.422-15.907h-1.989zm.985 6.953l1.702 3.913h-3.378l1.676-3.913zm-26.211-6.79v16.305h4.265V22.017h5.035v12.476h4.265V18.19l-13.565-.02zm69.653 27.653h36.411v1.813H91.672v-1.813zm-90.602 0h36.412v1.813H1.07v-1.813z" fill="#E30611"/></svg>