<svg width="20" height="24" fill="none" xmlns="http://www.w3.org/2000/svg"><path d="M5.821 23.132l.405-2.57-.902-.022H1.02L4.01 1.567a.245.245 0 01.243-.208h7.26c2.41 0 4.074.502 4.942 1.492.407.464.667.95.792 1.484.132.56.134 1.23.005 2.046l-.009.06v.523l.407.23c.311.158.59.371.825.63.348.396.573.9.668 1.5.099.615.066 1.347-.095 2.176-.186.953-.486 1.784-.892 2.463a5.066 5.066 0 01-1.412 1.548 5.73 5.73 0 01-1.903.859c-.7.182-1.5.275-2.377.275H11.9c-.404 0-.797.145-1.105.406a1.711 1.711 0 00-.576 1.028l-.042.231-.716 4.532-.032.167c-.009.052-.023.078-.045.096a.12.12 0 01-.074.027H5.82z" fill="#253B80"/><path d="M18.038 6.501c-.021.139-.046.28-.074.426-.957 4.916-4.233 6.614-8.417 6.614h-2.13c-.512 0-.943.371-1.023.876l-1.09 6.917-.309 1.96a.545.545 0 00.538.63H9.31a.91.91 0 00.898-.765l.037-.192.711-4.515.046-.247a.909.909 0 01.898-.768h.565c3.66 0 6.526-1.487 7.364-5.787.35-1.797.168-3.297-.757-4.352a3.614 3.614 0 00-1.035-.797z" fill="#179BD7"/><path d="M17.036 6.102a7.55 7.55 0 00-.931-.207 11.83 11.83 0 00-1.878-.137h-5.69a.907.907 0 00-.898.768l-1.21 7.668-.035.223a1.034 1.034 0 011.022-.876h2.13c4.184 0 7.46-1.699 8.417-6.614.029-.146.053-.287.075-.426a5.098 5.098 0 00-1.002-.4z" fill="#222D65"/><path d="M7.64 6.526a.905.905 0 01.897-.767h5.69c.675 0 1.304.044 1.879.137.388.06.771.152 1.146.273.283.094.545.204.787.332.285-1.817-.002-3.054-.984-4.174-1.083-1.233-3.038-1.76-5.539-1.76h-7.26c-.511 0-.947.37-1.026.876L.206 20.613a.624.624 0 00.615.721h4.483l1.125-7.14 1.21-7.668z" fill="#253B80"/></svg>