<svg width="18" height="15" fill="none" xmlns="http://www.w3.org/2000/svg"><path d="M17.978 2.03a7.677 7.677 0 01-2.041.533c.71-.444 1.331-1.154 1.598-1.953-.71.444-1.42.71-2.309.888-.621-.71-1.598-1.154-2.574-1.154a3.561 3.561 0 00-3.55 3.55c0 .267 0 .533.088.8A10.464 10.464 0 011.822.965c-.266.533-.444 1.154-.444 1.776A3.43 3.43 0 002.976 5.67a3.066 3.066 0 01-1.598-.444c0 1.687 1.243 3.196 2.84 3.462-.266.089-.62.089-.976.089-.266 0-.444 0-.71-.089a3.544 3.544 0 003.373 2.486c-1.242.976-2.752 1.509-4.438 1.509-.267 0-.533 0-.888-.089 1.598.977 3.462 1.598 5.504 1.598 6.569 0 10.12-5.415 10.12-10.12v-.444c.71-.266 1.332-.887 1.775-1.598z" fill="#fff"/></svg>