<svg width="20" height="15" fill="none" xmlns="http://www.w3.org/2000/svg"><path fill-rule="evenodd" clip-rule="evenodd" d="M19.681 5.03c.017.225.032.435.032.63v3.217c0 .42 0 .909-.07 1.468a5.6 5.6 0 01-.21 1.609c-.14.56-.42.98-.77 1.329-.35.35-.839.56-1.328.63-1.539.21-3.987.28-7.204.28-3.218 0-5.596-.07-7.204-.28-.49-.07-.98-.28-1.329-.63-.42-.35-.63-.77-.77-1.329a88.42 88.42 0 01-.209-1.607v-.002c0-.3-.02-.58-.039-.839-.016-.225-.031-.435-.031-.63V5.66c0-.42 0-.909.07-1.468 0-.63.07-1.12.21-1.61.14-.559.42-.978.769-1.328.35-.35.84-.56 1.329-.63 1.539-.21 4.388-.28 7.204-.28 2.815 0 5.595.07 7.204.28.49.07.979.28 1.329.63.42.35.63.77.769 1.329.07.49.14 1.049.21 1.609 0 .3.02.58.038.839zM13 7.663l-4.037 2.504a.39.39 0 01-.255.102c-.102 0-.153 0-.256-.051a.537.537 0 01-.255-.46v-5.06c0-.204.102-.357.255-.46a.464.464 0 01.511 0L13 6.744c.154.102.256.255.256.409 0 .153-.102.408-.256.51z" fill="#fff"/></svg>