<svg width="81" height="20" viewBox="0 0 81 20" fill="none" xmlns="http://www.w3.org/2000/svg">
<path d="M13.2693 10.4347C13.2496 8.08139 15.1954 6.9376 15.2808 6.88501C14.1765 5.28107 12.4673 5.05758 11.8692 5.03785C10.4361 4.88666 9.04255 5.89898 8.31289 5.89898C7.57008 5.89898 6.43944 5.05757 5.22992 5.0773C3.67199 5.10359 2.2061 6.00416 1.41071 7.41089C-0.239245 10.2704 0.990001 14.4774 2.57422 16.7913C3.36961 17.9219 4.2899 19.1906 5.506 19.1446C6.68923 19.0986 7.13623 18.3887 8.56268 18.3887C9.98256 18.3887 10.3967 19.1446 11.6325 19.1183C12.9078 19.0986 13.7032 17.9811 14.4723 16.8373C15.386 15.5423 15.7541 14.2605 15.7673 14.1948C15.7344 14.1816 13.2956 13.2482 13.2693 10.4347Z" fill="#292525"/>
<path d="M10.9353 3.51953C11.5729 2.72414 12.0068 1.63951 11.8884 0.535156C10.9681 0.574597 9.8112 1.17279 9.14728 1.95503C8.56224 2.64525 8.03635 3.76932 8.16782 4.82766C9.20644 4.90654 10.2713 4.30178 10.9353 3.51953Z" fill="#292525"/>
<path d="M30.4396 15.505H28.7831L27.8759 12.6521H24.7207L23.8595 15.505H22.249L25.3714 5.7959H27.3041L30.4396 15.505ZM27.6064 11.4557L26.7847 8.92489C26.6993 8.66195 26.535 8.05719 26.2983 7.09745H26.2654C26.1668 7.51158 26.0156 8.12292 25.8053 8.92489L24.9968 11.4557H27.6064Z" fill="#292525"/>
<path d="M38.4661 11.9212C38.4661 13.111 38.144 14.0511 37.4932 14.7413C36.9148 15.3592 36.1917 15.6616 35.3371 15.6616C34.4102 15.6616 33.7463 15.3329 33.3388 14.669V18.3436H31.7808V10.8037C31.7808 10.0544 31.7611 9.29184 31.7217 8.50302H33.089L33.1744 9.61394H33.2007C33.72 8.7791 34.5088 8.3584 35.5606 8.3584C36.3889 8.3584 37.0725 8.68707 37.6247 9.33785C38.19 9.9952 38.4661 10.8498 38.4661 11.9212ZM36.8819 11.9738C36.8819 11.2902 36.7307 10.7314 36.4217 10.291C36.0865 9.83087 35.6329 9.60079 35.0676 9.60079C34.6863 9.60079 34.3379 9.73226 34.0224 9.98206C33.7135 10.2384 33.5031 10.5671 33.4111 10.9812C33.3651 11.1719 33.3388 11.3296 33.3388 11.4545V12.6246C33.3388 13.1308 33.4965 13.5646 33.8055 13.913C34.1144 14.2614 34.522 14.4389 35.0216 14.4389C35.6066 14.4389 36.0602 14.2088 36.3889 13.7618C36.7175 13.3083 36.8819 12.7166 36.8819 11.9738Z" fill="#292525"/>
<path d="M46.512 11.9212C46.512 13.111 46.1899 14.0511 45.5391 14.7413C44.9607 15.3592 44.2376 15.6616 43.383 15.6616C42.4561 15.6616 41.7922 15.3329 41.3847 14.669V18.3436H39.8267V10.8037C39.8267 10.0544 39.807 9.29184 39.7676 8.50302H41.1349L41.2203 9.61394H41.2466C41.7659 8.7791 42.5547 8.3584 43.6065 8.3584C44.4348 8.3584 45.1184 8.68707 45.6706 9.33785C46.2359 9.9952 46.512 10.8498 46.512 11.9212ZM44.9278 11.9738C44.9278 11.2902 44.7766 10.7314 44.4676 10.291C44.1324 9.83087 43.6788 9.60079 43.1135 9.60079C42.7322 9.60079 42.3838 9.73226 42.0683 9.98206C41.7594 10.2384 41.5556 10.5671 41.457 10.9812C41.411 11.1719 41.3847 11.3296 41.3847 11.4545V12.6246C41.3847 13.1308 41.5424 13.5646 41.8514 13.913C42.1603 14.2614 42.5679 14.4389 43.0675 14.4389C43.6525 14.4389 44.1127 14.2088 44.4348 13.7618C44.77 13.3083 44.9278 12.7166 44.9278 11.9738Z" fill="#292525"/>
<path d="M55.5177 12.7829C55.5177 13.6112 55.2285 14.2817 54.6566 14.801C54.0255 15.3663 53.1447 15.649 52.014 15.649C50.9688 15.649 50.134 15.4452 49.5029 15.0442L49.8645 13.7492C50.5481 14.1502 51.2975 14.354 52.1126 14.354C52.6977 14.354 53.1578 14.2225 53.4799 13.9596C53.8086 13.6966 53.9729 13.3417 53.9729 12.9012C53.9729 12.5068 53.8349 12.1781 53.5719 11.9086C53.3024 11.6391 52.8554 11.3893 52.2309 11.1593C50.5153 10.5216 49.6673 9.59476 49.6673 8.37866C49.6673 7.58327 49.9696 6.93249 50.5678 6.41975C51.166 5.91359 51.9614 5.65723 52.954 5.65723C53.8349 5.65723 54.5711 5.80842 55.1561 6.11737L54.7617 7.37949C54.2096 7.08368 53.5917 6.93249 52.8949 6.93249C52.3493 6.93249 51.9154 7.07053 51.6065 7.33347C51.3501 7.57669 51.2186 7.86593 51.2186 8.21432C51.2186 8.59559 51.3698 8.91769 51.6656 9.16091C51.922 9.39098 52.3953 9.64077 53.0789 9.91029C53.9138 10.2455 54.5251 10.6399 54.9195 11.0935C55.3205 11.5471 55.5177 12.1124 55.5177 12.7829Z" fill="#292525"/>
<path d="M60.6708 9.67378H58.9551V13.0723C58.9551 13.9334 59.2575 14.3673 59.8622 14.3673C60.1383 14.3673 60.3684 14.341 60.5524 14.295L60.5985 15.4782C60.2895 15.5899 59.8885 15.6491 59.3889 15.6491C58.771 15.6491 58.2977 15.4585 57.9493 15.0838C57.6009 14.7091 57.43 14.078 57.43 13.1972V9.66721H56.4111V8.5037H57.43V7.22186L58.9551 6.76172V8.5037H60.6708V9.67378Z" fill="#292525"/>
<path d="M68.3884 11.9478C68.3884 13.0259 68.0794 13.9067 67.4681 14.5969C66.8239 15.3069 65.9693 15.6618 64.9044 15.6618C63.879 15.6618 63.0573 15.32 62.4459 14.6429C61.8346 13.9659 61.5322 13.1047 61.5322 12.0661C61.5322 10.9815 61.8478 10.0941 62.4722 9.40385C63.1033 8.71363 63.9513 8.36523 65.0162 8.36523C66.0417 8.36523 66.8699 8.70706 67.4944 9.3907C68.0926 10.0481 68.3884 10.9026 68.3884 11.9478ZM66.7779 11.9807C66.7779 11.3365 66.6398 10.7909 66.3638 10.3307C66.0351 9.77197 65.5684 9.49588 64.9636 9.49588C64.3391 9.49588 63.8592 9.77197 63.5371 10.3307C63.2545 10.7909 63.123 11.3496 63.123 12.0135C63.123 12.6577 63.2611 13.2099 63.5371 13.6635C63.8724 14.2222 64.3457 14.4983 64.9505 14.4983C65.5421 14.4983 66.0088 14.2157 66.3506 13.6503C66.6333 13.177 66.7779 12.6249 66.7779 11.9807Z" fill="#292525"/>
<path d="M73.4498 9.87031C73.2986 9.84401 73.1342 9.83086 72.9567 9.83086C72.4111 9.83086 71.9839 10.0346 71.6881 10.4488C71.4317 10.8103 71.3002 11.277 71.3002 11.8292V15.5038H69.7423V10.7051C69.7423 9.8966 69.7292 9.16037 69.6963 8.50302H71.0504L71.1096 9.84401H71.1556C71.3199 9.38387 71.5763 9.00918 71.9313 8.73309C72.2797 8.48329 72.6544 8.3584 73.0554 8.3584C73.2 8.3584 73.3314 8.37155 73.4432 8.38469L73.4498 9.87031Z" fill="#292525"/>
<path d="M80.4048 11.6716C80.4048 11.9477 80.3851 12.1844 80.3456 12.375H75.6784C75.6982 13.0652 75.9217 13.5977 76.3555 13.9592C76.7499 14.2813 77.2561 14.4457 77.8806 14.4457C78.5708 14.4457 79.2018 14.3339 79.7672 14.117L80.0104 15.195C79.3465 15.4843 78.5642 15.6289 77.6636 15.6289C76.579 15.6289 75.7245 15.3068 75.1066 14.6692C74.4886 14.0315 74.1797 13.1704 74.1797 12.0989C74.1797 11.0472 74.4689 10.1663 75.0474 9.46294C75.6522 8.71356 76.4673 8.33887 77.4927 8.33887C78.4985 8.33887 79.2676 8.71356 79.7803 9.46294C80.1944 10.0677 80.4048 10.7974 80.4048 11.6716ZM78.9192 11.2707C78.9323 10.8105 78.8272 10.4095 78.6168 10.0743C78.3473 9.64042 77.9332 9.4235 77.381 9.4235C76.8748 9.4235 76.4607 9.63385 76.1452 10.0546C75.8888 10.3898 75.731 10.7974 75.685 11.2641L78.9192 11.2707Z" fill="#292525"/>
</svg>
