<svg width="16" height="17" viewBox="0 0 16 17" fill="none" xmlns="http://www.w3.org/2000/svg">
<g clip-path="url(#clip0)">
<path d="M9.88038 3.1875L1.07695 11.9916C1.03266 12.036 1.00068 12.0921 0.985451 12.1524L0.00967543 16.0689C-0.0195128 16.1868 0.0151324 16.3122 0.101174 16.3982C0.166277 16.4633 0.254984 16.4994 0.345721 16.4994C0.373513 16.4994 0.40194 16.4959 0.429605 16.489L4.34616 15.5131C4.4072 15.4978 4.46266 15.466 4.50695 15.4217L13.3111 6.61826L9.88038 3.1875Z" fill="#E30611"/>
<path d="M15.631 2.47094L14.6511 1.49098C13.9961 0.836022 12.8546 0.836657 12.2004 1.49098L11 2.69138L14.4306 6.12201L15.631 4.92161C15.9582 4.59458 16.1384 4.15929 16.1384 3.69634C16.1384 3.23339 15.9582 2.79811 15.631 2.47094Z" fill="#E30611"/>
</g>
<defs>
<clipPath id="clip0">
<rect width="16" height="16" fill="white" transform="translate(0 0.5)"/>
</clipPath>
</defs>
</svg>
