<svg width="11" height="13" viewBox="0 0 11 13" fill="none" xmlns="http://www.w3.org/2000/svg">
<path d="M9.48636 5.49533C9.48636 6.20511 9.22917 6.96064 8.7993 7.71976C8.37136 8.47547 7.79257 9.19897 7.19992 9.8338C6.60896 10.4668 6.01594 10.9992 5.5698 11.3738C5.42773 11.4931 5.30101 11.596 5.19456 11.6806C5.08725 11.5936 4.95919 11.4877 4.81546 11.3649C4.36869 10.9831 3.77485 10.442 3.18306 9.80281C2.58951 9.16172 2.00985 8.4346 1.58133 7.68171C1.15032 6.92441 0.894922 6.18074 0.894922 5.49533C0.894922 3.12287 2.81818 1.19961 5.19064 1.19961C7.5631 1.19961 9.48636 3.12287 9.48636 5.49533Z" stroke="#292525" stroke-width="1.2"/>
<circle cx="5.19034" cy="5.57511" r="1.1962" fill="#292525"/>
</svg>
