<svg width="32" height="33" viewBox="0 0 32 33" fill="none" xmlns="http://www.w3.org/2000/svg">
<g clip-path="url(#clip0)">
<path d="M16 32.4814C24.8366 32.4814 32 25.318 32 16.4814C32 7.64489 24.8366 0.481445 16 0.481445C7.16344 0.481445 0 7.64489 0 16.4814C0 25.318 7.16344 32.4814 16 32.4814Z" fill="#3B5998"/>
<path d="M20.022 17.1077H17.167V27.5671H12.8414V17.1077H10.7842V13.4318H12.8414V11.0531C12.8414 9.3521 13.6495 6.68848 17.2055 6.68848L20.4096 6.70188V10.2699H18.0848C17.7035 10.2699 17.1673 10.4604 17.1673 11.2719V13.4352H20.3999L20.022 17.1077Z" fill="white"/>
</g>
<defs>
<clipPath id="clip0">
<rect width="32" height="32" fill="white" transform="translate(0 0.481445)"/>
</clipPath>
</defs>
</svg>
