<svg width="94" height="23" viewBox="0 0 94 23" fill="none" xmlns="http://www.w3.org/2000/svg">
<path fill-rule="evenodd" clip-rule="evenodd" d="M0.75124 0.781711C0.506121 1.04516 0.365234 1.45064 0.365234 1.97753V20.7189C0.365234 21.2458 0.506121 21.6512 0.760404 21.9055L0.826838 21.9616L11.328 11.4604V11.2245L0.817675 0.725586L0.75124 0.781711Z" fill="url(#paint0_linear)"/>
<path fill-rule="evenodd" clip-rule="evenodd" d="M14.822 14.9754L11.3193 11.4716V11.2265L14.8232 7.72266L14.8988 7.76962L19.0429 10.1246C20.2295 10.7935 20.2295 11.8954 19.0429 12.5735L14.8988 14.9285C14.8976 14.9285 14.822 14.9754 14.822 14.9754Z" fill="url(#paint1_linear)"/>
<path fill-rule="evenodd" clip-rule="evenodd" d="M14.8969 14.9281L11.3186 11.3486L0.750977 21.9163C1.13698 22.3309 1.78643 22.3779 2.51263 21.9724L14.8969 14.9281Z" fill="url(#paint2_linear)"/>
<path fill-rule="evenodd" clip-rule="evenodd" d="M14.8969 7.77067L2.51263 0.73551C1.78758 0.320869 1.13698 0.376994 0.750977 0.791636L11.3175 11.349L14.8969 7.77067Z" fill="url(#paint3_linear)"/>
<path opacity="0.2" fill-rule="evenodd" clip-rule="evenodd" d="M14.8219 14.8525L2.5224 21.8407C1.83514 22.2359 1.22235 22.2084 0.827176 21.8499L0.760742 21.9163L0.827176 21.9725C1.22235 22.3298 1.83514 22.3585 2.5224 21.9633L14.9067 14.9281L14.8219 14.8525Z" fill="#292525"/>
<path opacity="0.12" fill-rule="evenodd" clip-rule="evenodd" d="M19.0414 12.4505L14.8125 14.8525L14.8881 14.9281L19.0322 12.5731C19.6255 12.234 19.9176 11.7919 19.9176 11.3486C19.8798 11.7541 19.5786 12.1401 19.0414 12.4505Z" fill="#292525"/>
<path opacity="0.25" fill-rule="evenodd" clip-rule="evenodd" d="M2.51289 0.858207L19.0413 10.2483C19.5785 10.5496 19.8797 10.9448 19.9267 11.3502C19.9267 10.9081 19.6346 10.4648 19.0413 10.1258L2.51289 0.735647C1.32624 0.0575596 0.365234 0.622251 0.365234 1.97843V2.10099C0.365234 0.744811 1.32624 0.189283 2.51289 0.858207Z" fill="white"/>
<path fill-rule="evenodd" clip-rule="evenodd" d="M23.9613 10.7551C23.9613 7.75292 26.4846 5.30859 29.4868 5.30859C31.1465 5.30859 32.3274 5.96034 33.2185 6.80909L32.1693 7.85829C31.5325 7.26039 30.6688 6.79649 29.4856 6.79649C27.2933 6.79649 25.5798 8.56158 25.5798 10.7539C25.5798 12.9462 27.2933 14.7136 29.4845 14.7136C30.9059 14.7136 31.7146 14.1432 32.2335 13.6232C32.6584 13.1982 32.9368 12.5877 33.0444 11.7504H29.4868V10.266H34.4945C34.5472 10.5317 34.5747 10.8501 34.5747 11.1949C34.5747 12.3094 34.2689 13.6919 33.285 14.6758C32.3274 15.6723 31.1064 16.2038 29.4856 16.2038C26.4823 16.2038 23.959 13.7618 23.959 10.7573L23.9613 10.7551ZM38.6226 9.18813C36.6834 9.18813 35.1005 10.6634 35.1005 12.6943C35.1005 14.7148 36.6823 16.2004 38.6226 16.2004C40.563 16.2004 42.1425 14.7125 42.1425 12.6931C42.1425 10.6623 40.5618 9.18698 38.6226 9.18813ZM38.6226 14.8213C37.5608 14.8213 36.6433 13.945 36.6433 12.6954C36.6433 11.4331 37.5597 10.5695 38.6226 10.5695C39.6844 10.5695 40.6008 11.432 40.6008 12.6954C40.6008 13.9439 39.6856 14.8213 38.6226 14.8213ZM46.3027 9.18813C44.3635 9.18813 42.7828 10.6634 42.7828 12.6943C42.7828 14.7148 44.3635 16.2004 46.3027 16.2004C48.2419 16.2004 49.8225 14.7125 49.8225 12.6931C49.8225 10.6623 48.243 9.18698 46.3027 9.18813ZM46.3027 14.8213C45.2409 14.8213 44.3234 13.945 44.3234 12.6954C44.3234 11.4331 45.2397 10.5695 46.3027 10.5695C47.3645 10.5695 48.2819 11.432 48.2819 12.6954C48.2819 13.9439 47.3645 14.8213 46.3027 14.8213ZM55.7283 9.40117V9.97159H55.6756C55.3308 9.5581 54.6665 9.18698 53.8303 9.18698C52.0767 9.18698 50.4674 10.7287 50.4674 12.7091C50.4674 14.6735 52.0756 16.2027 53.8303 16.2027C54.6665 16.2027 55.3308 15.8316 55.6756 15.4066H55.7283V15.9106C55.7283 17.2519 55.0113 17.97 53.8555 17.97C52.9117 17.97 52.3276 17.292 52.0882 16.7227L50.7457 17.2805C51.1306 18.2094 52.1546 19.3526 53.8544 19.3526C55.6596 19.3526 57.1876 18.2885 57.1876 15.6987V9.40003L55.7283 9.40117ZM53.9621 14.8213C52.9003 14.8213 52.008 13.9302 52.008 12.7091C52.008 11.4744 52.8991 10.5706 53.9621 10.5706C55.0113 10.5706 55.8348 11.4732 55.8348 12.7091C55.836 13.9302 55.0124 14.8213 53.9621 14.8213ZM58.2517 5.68085H59.7934V15.9896H58.2517V5.68085ZM64.0188 14.8213C63.2354 14.8213 62.6764 14.4616 62.3202 13.7595L67.0095 11.818L66.848 11.4194C66.5571 10.6371 65.666 9.18813 63.8459 9.18813C62.0396 9.18813 60.5379 10.6096 60.5379 12.6954C60.5379 14.6598 62.0258 16.2015 64.0188 16.2015C65.627 16.2015 66.5571 15.2199 66.9419 14.6472L65.7461 13.8511C65.3464 14.4364 64.8012 14.8224 64.0188 14.8213ZM63.8986 10.5432C64.5091 10.5432 65.0268 10.849 65.1998 11.2865L62.0636 12.5889C62.0247 11.2338 63.114 10.5432 63.8986 10.5432ZM73.7744 5.68085H70.0884V15.9896H71.6267V12.0849H73.7755C75.481 12.0849 77.1579 10.8501 77.1579 8.8823C77.1579 6.91791 75.4822 5.682 73.7778 5.682L73.7744 5.68085ZM73.8145 10.6497H71.6267V7.11492H73.8145C74.9645 7.11492 75.6196 8.06905 75.6196 8.8823C75.6196 9.6818 74.9645 10.6497 73.8145 10.6497ZM79.5438 15.9896V5.68085H78.0055V15.9896H79.5438ZM86.4541 15.9713V12.0196C86.4541 10.1892 85.0865 9.16865 83.3214 9.16865C82.2092 9.16865 81.0558 9.66004 80.5782 10.747L81.9435 11.3163C82.2356 10.747 82.7785 10.5603 83.3501 10.5603C84.145 10.5603 84.9537 11.038 84.9663 11.8879V11.9944C84.6879 11.8352 84.0923 11.5958 83.3615 11.5958C81.8897 11.5958 80.3914 12.4045 80.3914 13.9164C80.3914 15.2966 81.5987 16.1843 82.9515 16.1843C83.9869 16.1843 84.5562 15.7204 84.9136 15.1775H84.9663V15.9736H86.453L86.4541 15.9713ZM83.1382 14.819C82.6342 14.819 81.9309 14.567 81.9309 13.945C81.9309 13.149 82.8071 12.842 83.5631 12.842C84.2401 12.842 84.5573 12.9875 84.9697 13.1868C84.8517 14.1123 84.0694 14.8075 83.1382 14.819ZM91.864 9.3943L90.1 13.8626H90.0473L88.2169 9.3943H86.5595L89.304 15.6414L87.7382 19.1155H89.3429L93.5729 9.3943H91.864Z" fill="#808285"/>
<defs>
<linearGradient id="paint0_linear" x1="10.3851" y1="1.77608" x2="-6.43603" y2="6.25807" gradientUnits="userSpaceOnUse">
<stop stop-color="#00A0FF"/>
<stop offset="0.007" stop-color="#00A1FF"/>
<stop offset="0.26" stop-color="#00BEFF"/>
<stop offset="0.512" stop-color="#00D2FF"/>
<stop offset="0.76" stop-color="#00DFFF"/>
<stop offset="1" stop-color="#00E3FF"/>
</linearGradient>
<linearGradient id="paint1_linear" x1="20.5871" y1="11.3496" x2="0.0772944" y2="11.3496" gradientUnits="userSpaceOnUse">
<stop stop-color="#FFE000"/>
<stop offset="0.409" stop-color="#FFBD00"/>
<stop offset="0.775" stop-color="#FFA500"/>
<stop offset="1" stop-color="#FF9C00"/>
</linearGradient>
<linearGradient id="paint2_linear" x1="12.9511" y1="13.2959" x2="-0.552916" y2="36.024" gradientUnits="userSpaceOnUse">
<stop stop-color="#FF3A44"/>
<stop offset="1" stop-color="#C31162"/>
</linearGradient>
<linearGradient id="paint3_linear" x1="-1.90916" y1="-5.45181" x2="4.11541" y2="4.69895" gradientUnits="userSpaceOnUse">
<stop stop-color="#32A071"/>
<stop offset="0.069" stop-color="#2DA771"/>
<stop offset="0.476" stop-color="#15CF74"/>
<stop offset="0.801" stop-color="#06E775"/>
<stop offset="1" stop-color="#00F076"/>
</linearGradient>
</defs>
</svg>
