<svg width="16" height="16" viewBox="0 0 16 16" fill="none" xmlns="http://www.w3.org/2000/svg">
<path d="M13.5344 0.72168H2.73841C1.51951 0.72168 0.59082 1.65037 0.59082 2.86927V13.6653C0.59082 14.8842 1.51951 15.8129 2.73841 15.8129H13.5344C14.7533 15.8129 15.682 14.8842 15.682 13.6653V2.86927C15.682 1.65037 14.7533 0.72168 13.5344 0.72168ZM8.13641 12.7946C10.6323 12.7946 12.6638 10.8212 12.6638 8.4414C12.6638 8.03509 12.6057 7.57075 12.4896 7.22249H13.7666V13.375C13.7666 13.6653 13.5344 13.9555 13.1861 13.9555H3.08667C2.79646 13.9555 2.50624 13.7233 2.50624 13.375V7.16445H3.84123C3.72514 7.57075 3.6671 7.97705 3.6671 8.38335C3.60906 10.8212 5.64056 12.7946 8.13641 12.7946ZM8.13641 11.0533C6.5112 11.0533 5.23426 9.77639 5.23426 8.20922C5.23426 6.64206 6.5112 5.36512 8.13641 5.36512C9.76161 5.36512 11.0386 6.64206 11.0386 8.20922C11.0386 9.83443 9.76161 11.0533 8.13641 11.0533ZM13.7085 4.84273C13.7085 5.19099 13.4183 5.4812 13.0701 5.4812H11.4449C11.0966 5.4812 10.8064 5.19099 10.8064 4.84273V3.27557C10.8064 2.92731 11.0966 2.6371 11.4449 2.6371H13.0701C13.4183 2.6371 13.7085 2.92731 13.7085 3.27557V4.84273Z" fill="white"/>
</svg>
