<svg width="27" height="29" viewBox="0 0 27 29" fill="none" xmlns="http://www.w3.org/2000/svg">
<path d="M10.5224 6.12598H14.0087H15.6333L18.2057 6.56598L19.1195 8.19061L19.4241 12.5568L18.2057 15.6368L15.6218 17.4645L16.4752 19.0745L14.1541 19.6548L11.6283 19.0745L11.9014 17.4645L10.5224 16.5507L8.86405 14.0122L8.35645 9.88293L9.13484 7.10752L10.5224 6.12598Z" fill="#EFCF9E"/>
<path d="M19.2743 8.8003V12.2136H20.3666L20.8444 10.5069L20.6055 7.57151L21.6636 5.45527L19.5474 3.47557L17.4311 2.554V2.04199L13.1304 1.3252L9.64869 2.554L7.2937 6.24034L7.08887 10.5069L7.7032 11.7699L8.69308 12.0429V8.01524L9.64869 6.92299L11.2531 6.24034H17.0896L18.6257 6.92299L19.2743 8.8003Z" fill="#A28E5D"/>
<path d="M17.5674 27.9144L22.2778 26.5491V23.955L21.5267 21.6681L19.4788 20.098L17.5674 19.8591L16.2361 18.9034L14.154 19.586H12.7887L11.4918 19.1082L11.7648 18.2207L10.8773 19.8591H9.51199L6.81553 21.0196L5.55273 23.3406V26.5491L6.81553 27.0611L11.4918 27.9144H17.5674Z" fill="#E30611"/>
<path d="M22.7206 23.9468V26.5135C22.7206 26.7535 22.5261 26.948 22.2861 26.948C22.0462 26.948 21.8516 26.7535 21.8516 26.5135V23.9468C21.8516 21.9483 20.2344 20.331 18.2358 20.3311C17.2901 20.3311 16.4321 19.8493 15.9406 19.0423C15.8157 18.8374 15.8806 18.57 16.0856 18.4452C16.2905 18.3203 16.5579 18.3853 16.6827 18.5903C17.0153 19.1362 17.5958 19.4621 18.2358 19.4621C20.7145 19.462 22.7206 21.4679 22.7206 23.9468V23.9468ZM15.1381 19.5912C15.1892 19.8257 15.0406 20.0572 14.8061 20.1083C13.6626 20.3574 12.4996 20.108 11.5736 19.476C10.6569 20.4584 9.44577 20.3311 9.6079 20.3311C7.60942 20.331 5.99207 21.9482 5.99207 23.9468V26.5135C5.99207 26.7535 5.79751 26.948 5.55756 26.948C5.3176 26.948 5.12305 26.7535 5.12305 26.5135V23.9468C5.12305 21.4682 7.1288 19.4621 9.60779 19.4621C10.6105 19.4621 11.4234 18.6542 11.4234 17.6511V17.5367C9.52686 16.6298 8.19563 14.7241 8.11448 12.5049C7.334 12.3173 6.75246 11.6187 6.75246 10.7875V8.53497C6.72872 7.4324 6.89243 4.67093 8.90589 2.73008C11.3921 0.333434 15.3792 0.485675 18.3109 1.89702C18.5967 2.0347 18.6401 2.42076 18.4028 2.62069C19.888 2.98297 21.1687 3.89598 21.9915 5.20266C22.034 5.26995 22.1117 5.37559 22.0914 5.54413C22.0788 5.64901 22.0476 5.73776 21.9668 5.81977C21.4372 6.35683 21.1456 7.0685 21.1456 7.82373V10.7876C21.1456 11.0276 20.951 11.2221 20.7111 11.2221C20.4711 11.2221 20.2766 11.0276 20.2766 10.7876V7.82373C20.2766 6.9527 20.5742 6.12594 21.1207 5.46179C20.2877 4.27036 18.9879 3.50411 17.518 3.3467L16.7543 3.26491C16.3077 3.21711 16.2201 2.6019 16.6351 2.43108L16.9825 2.28808C12.4589 0.711077 7.62142 2.46329 7.62142 8.53024V10.7875C7.62142 11.1323 7.82 11.432 8.11025 11.5825V8.76559C8.11025 7.08849 9.47472 5.72402 11.1518 5.72402H16.6918C18.3689 5.72402 19.7334 7.08838 19.7334 8.76542V12.3231C19.7334 16.102 16.0407 18.9722 12.2832 17.866C12.2587 18.176 12.1816 18.4752 12.0558 18.7533C12.7868 19.2553 13.7098 19.4577 14.6211 19.2592C14.8555 19.2081 15.087 19.3568 15.1381 19.5912V19.5912ZM13.9218 17.2327C16.6472 17.2327 18.8644 15.0155 18.8644 12.2901V8.76542C18.8644 7.56759 17.8898 6.59304 16.6918 6.59304H11.1518C9.95387 6.59304 8.97927 7.56764 8.97927 8.76559V12.2901C8.97927 15.0155 11.1965 17.2327 13.9218 17.2327ZM18.3212 24.7212H17.0177C16.7777 24.7212 16.5832 24.9157 16.5832 25.1557C16.5832 25.3956 16.7777 25.5902 17.0177 25.5902H18.3212C18.5612 25.5902 18.7557 25.3956 18.7557 25.1557C18.7557 24.9157 18.5612 24.7212 18.3212 24.7212Z" fill="#292525"/>
<path d="M14.6777 19.7237C15.4492 19.4826 15.7385 19.2737 16.2689 18.7754" stroke="#292525" stroke-width="0.879871" stroke-linecap="round" stroke-linejoin="round"/>
<path d="M20.7066 10.6895C20.664 11.6766 20.5833 12.1194 19.4209 12.3226" stroke="#292525" stroke-width="0.879871" stroke-linecap="round" stroke-linejoin="round"/>
<path d="M16.3533 18.9151C16.1317 18.628 16.0557 18.4863 15.8682 17.4805" stroke="#292525" stroke-width="0.92618" stroke-linecap="round" stroke-linejoin="round"/>
<path d="M5.54199 26.5674C9.57395 28.4044 19.174 28.4772 22.3659 26.5674" stroke="#292525" stroke-width="0.92618" stroke-linecap="round" stroke-linejoin="round"/>
</svg>
