<svg width="109" height="56" viewBox="0 0 109 56" fill="none" xmlns="http://www.w3.org/2000/svg">
<path fill-rule="evenodd" clip-rule="evenodd" d="M51.2072 37.231C55.015 38.9087 59.8781 38.1306 63.2871 33.2772H64.3035L64.3473 36.4042C63.3317 37.3286 62.2083 38.1271 61.0015 38.7823C58.8946 39.8841 56.565 40.4929 54.1885 40.5628C51.812 40.6327 49.4506 40.1619 47.2827 39.1859L47.0833 39.0935H47.0492C45.6676 38.444 44.4011 37.5734 43.2998 36.5161C41.1137 34.4417 39.8242 31.5956 39.7059 28.5844V28.2148C39.7059 28.1013 39.7059 27.9878 39.7059 27.8743C39.7111 25.7335 40.3014 23.6348 41.4129 21.8052C44.9581 16.1737 53.1865 13.5379 60.7243 17.0928L61.0063 17.229L63.968 15.7701V22.6125H62.9516C61.8038 20.8367 60.1483 19.4472 58.2003 18.6247C53.3372 16.6795 47.7058 19.1548 45.8918 24.7717C45.8399 24.9338 45.7897 25.0959 45.7411 25.258C44.2335 30.7582 47.0979 35.4122 51.1926 37.2212L51.2072 37.231ZM65.6701 14.8996L66.4628 14.5008L54.5287 8.52404L15.5217 27.9765L27.4606 33.9727L38.033 28.6962C38.1849 32.118 39.6538 35.3486 42.1326 37.7124C43.109 38.6625 44.2061 39.48 45.3958 40.144L42.5703 41.5543L54.4849 47.5164L93.4919 28.064L81.5773 22.0678L62.509 31.5849H62.4021L62.3437 31.6676L53.347 36.1611C49.2085 35.276 45.9404 30.9721 47.3799 25.7151C47.5785 24.9779 47.8659 24.2675 48.2358 23.5997L55.9439 19.7627C57.0931 19.973 58.1864 20.4191 59.1547 21.0727C60.1231 21.7264 60.9456 22.5735 61.5705 23.5608L62.0568 24.3048H65.6701V14.8996ZM7.95959 27.9911L54.4849 51.2999L101.073 28.0494L54.5336 4.74055L7.95959 27.9911ZM0.397461 27.9911L54.4849 55.0834L108.64 28.0543L54.5336 0.961914L0.397461 27.9911Z" fill="#E30611"/>
</svg>
