<svg width="129" height="51" viewBox="0 0 129 51" fill="none" xmlns="http://www.w3.org/2000/svg">
<path fill-rule="evenodd" clip-rule="evenodd" d="M8.72072 8.69945L7.79463 2.51023H6.09242L4.62501 5.8755L3.17064 2.51023H1.46192L0.529297 8.69945H2.25758L2.73368 5.13854L4.37066 8.7125H4.87284L6.49026 5.13854L6.97287 8.69945H8.72072ZM13.8925 2.51023L11.4403 5.82332V2.51023H9.75118V8.69945H11.0555L13.5208 5.39941V8.69945H15.2295V2.51023H13.8925ZM20.2122 2.51023V4.7407H18.3535V2.51023H16.6317V8.69945H18.3535V6.31899H20.1861V8.69945H21.9079V2.51023H20.2122ZM27.458 2.51023L25.0058 5.82332V2.51023H23.3362V8.69945H24.6405L27.1058 5.39941V8.69945H28.7949V2.51023H27.458ZM30.0667 7.00377H33.3276V5.51028H30.0667V7.00377ZM41.9169 5.58202C41.94 4.76667 41.6419 3.97487 41.0869 3.37715C40.5318 2.77943 39.7643 2.42361 38.9494 2.38632V1.66891H37.2668V2.43197C36.4616 2.49499 35.7098 2.85935 35.1614 3.45232C34.613 4.04529 34.3084 4.82326 34.3084 5.63093C34.3084 6.4386 34.613 7.21657 35.1614 7.80954C35.7098 8.40251 36.4616 8.76687 37.2668 8.82989V9.72991H38.9429V8.82989C39.7671 8.79096 40.5423 8.42759 41.0995 7.81909C41.6567 7.21059 41.9505 6.40639 41.9169 5.58202V5.58202ZM35.9951 5.58202C35.9748 5.18586 36.1003 4.79601 36.3478 4.48602C36.5953 4.17604 36.9478 3.96737 37.3386 3.89938V7.26465C36.9484 7.19535 36.5968 6.98633 36.3495 6.67665C36.1023 6.36698 35.9763 5.97785 35.9951 5.58202V5.58202ZM38.8777 7.26465V3.89938C39.2572 3.98837 39.5954 4.20302 39.8375 4.50847C40.0796 4.81393 40.2114 5.19225 40.2114 5.58202C40.2114 5.97178 40.0796 6.3501 39.8375 6.65556C39.5954 6.96101 39.2572 7.17566 38.8777 7.26465V7.26465ZM46.1561 2.48414L45.2561 5.0407L44.0887 2.48414H42.1321L44.3756 6.78203C44.2712 6.92098 44.1314 7.02938 43.9708 7.09591C43.8102 7.16244 43.6347 7.18468 43.4626 7.1603H43.0126V8.70597H43.5604C44.9169 8.70597 45.6539 8.15162 46.28 6.64508L47.9952 2.48414H46.1561ZM53.4345 2.48414H48.3605V4.01678H50.0431V8.66684H51.7518V4.01678H53.4475V2.48414H53.4345ZM57.1128 4.72766H56.0562V3.99069H58.6063V2.48414H54.4192V8.67337H57.1258C57.6447 8.67337 58.1424 8.46723 58.5093 8.1003C58.8762 7.73338 59.0824 7.23573 59.0824 6.71682C59.0824 6.19791 58.8762 5.70025 58.5093 5.33333C58.1424 4.9664 57.6447 4.76027 57.1258 4.76027L57.1128 4.72766ZM56.7997 7.29726H56.0562V6.0842H56.8128C56.9736 6.0842 57.1279 6.1481 57.2416 6.26184C57.3554 6.37559 57.4193 6.52986 57.4193 6.69073C57.4193 6.85159 57.3554 7.00586 57.2416 7.11961C57.1279 7.23335 56.9736 7.29726 56.8128 7.29726H56.7997ZM63.2759 8.82337C63.9136 8.794 64.5287 8.57808 65.0449 8.20238C65.5611 7.82669 65.9556 7.30775 66.1796 6.70991C66.4035 6.11208 66.4471 5.46165 66.3048 4.83928C66.1626 4.21692 65.8408 3.65001 65.3793 3.20884C64.9179 2.76768 64.337 2.47167 63.7089 2.35753C63.0808 2.24339 62.433 2.31613 61.8458 2.56674C61.2586 2.81735 60.758 3.23481 60.4058 3.76733C60.0537 4.29986 59.8657 4.92404 59.865 5.56245C59.8559 6.00604 59.9391 6.44667 60.1093 6.85641C60.2795 7.26614 60.533 7.63604 60.8537 7.94264C61.1744 8.24924 61.5553 8.48584 61.9723 8.63746C62.3893 8.78907 62.8332 8.85238 63.2759 8.82337V8.82337ZM63.2759 7.23856C62.9454 7.24634 62.6201 7.15546 62.3415 6.97751C62.0629 6.79956 61.8437 6.54262 61.7118 6.2395C61.5799 5.93639 61.5414 5.60084 61.601 5.2757C61.6607 4.95056 61.8159 4.65059 62.0469 4.41407C62.2778 4.17756 62.574 4.01523 62.8977 3.94782C63.2213 3.88042 63.5577 3.91099 63.8638 4.03563C64.17 4.16027 64.4321 4.37333 64.6166 4.64761C64.8011 4.92188 64.8998 5.24493 64.8998 5.5755C64.9088 5.79297 64.8732 6.00997 64.7952 6.21318C64.7173 6.4164 64.5986 6.60155 64.4466 6.75727C64.2945 6.913 64.1122 7.03601 63.9109 7.11877C63.7096 7.20153 63.4935 7.24229 63.2759 7.23856V7.23856ZM68.7738 2.48414L68.3434 6.12985C68.2651 6.82116 67.9977 7.12769 67.4695 7.12769H67.176V8.69294H67.6716C69.0673 8.69294 69.8434 7.86466 70.0325 6.19507L70.2738 4.04286H71.4673V8.67337H73.1761V2.48414H68.7738ZM77.2131 4.27765H76.2739V2.48414H74.5913V8.67337H77.2C77.7829 8.67337 78.342 8.4418 78.7542 8.02963C79.1663 7.61745 79.3979 7.05841 79.3979 6.4755C79.3979 5.8926 79.1663 5.33356 78.7542 4.92138C78.342 4.5092 77.7829 4.27765 77.2 4.27765H77.2131ZM77.0044 7.20596H76.2739V5.74506H77.0109C77.2046 5.74506 77.3904 5.82201 77.5274 5.959C77.6644 6.09598 77.7413 6.28178 77.7413 6.4755C77.7413 6.66923 77.6644 6.85502 77.5274 6.99201C77.3904 7.12899 77.2046 7.20596 77.0109 7.20596H77.0044ZM84.1001 2.51023V4.7407H82.2088V2.51023H80.487V8.69945H82.2088V6.31899H84.1001V8.69945H85.8219V2.51023H84.1001ZM89.8459 4.30373H88.9002V2.51023H87.2176V8.69945H89.8263C90.4092 8.69945 90.9683 8.4679 91.3804 8.05572C91.7926 7.64354 92.0242 7.08451 92.0242 6.5016C92.0242 5.91869 91.7926 5.35965 91.3804 4.94748C90.9683 4.5353 90.4092 4.30373 89.8263 4.30373H89.8459ZM92.6959 2.51023V8.69945H94.4177V2.51023H92.6959ZM89.6372 7.23204H88.9002V5.77114H89.6372C89.8309 5.77114 90.0167 5.84811 90.1537 5.98509C90.2907 6.12208 90.3676 6.30787 90.3676 6.5016C90.3676 6.69532 90.2907 6.88112 90.1537 7.0181C90.0167 7.15509 89.8309 7.23204 89.6372 7.23204ZM97.1438 1.91022H99.9808V0.755859H97.1438V1.91022ZM99.9286 2.51023L97.483 5.82332V2.51023H95.8068V8.69945H97.1112L99.5699 5.39941V8.69945H101.246V2.51023H99.9286ZM110.096 8.69945L107.931 5.51028L109.887 2.51675H107.931L106.294 5.12549V2.51675H104.585V8.70597H106.274V5.97333L108.048 8.70597L110.096 8.69945ZM112.053 2.51023L111.622 6.15594C111.544 6.84726 111.277 7.15378 110.748 7.15378H110.455V8.71902H110.951C112.346 8.71902 113.122 7.89074 113.311 6.22115L113.553 4.06894H114.746V8.69945H116.455V2.51023H112.053ZM121.294 2.51023L120.388 5.06679L119.22 2.51023H117.264L119.507 6.80812C119.403 6.94708 119.263 7.05546 119.102 7.122C118.942 7.18853 118.766 7.21077 118.594 7.18639H118.151V8.73206H118.666C120.022 8.73206 120.759 8.17771 121.385 6.67116L123.101 2.51023H121.294ZM126.642 4.75374H125.566V4.01678H128.116V2.51023H123.883V8.69945H126.59C127.109 8.69945 127.606 8.49332 127.973 8.12639C128.34 7.75947 128.546 7.26181 128.546 6.7429C128.546 6.22399 128.34 5.72633 127.973 5.35941C127.606 4.99249 127.109 4.78635 126.59 4.78635L126.642 4.75374ZM126.329 7.32335H125.573V6.11028H126.329C126.49 6.11028 126.644 6.17419 126.758 6.28794C126.872 6.40168 126.936 6.55596 126.936 6.71682C126.936 6.87768 126.872 7.03195 126.758 7.1457C126.644 7.25945 126.49 7.32335 126.329 7.32335Z" fill="#E30611"/>
<path fill-rule="evenodd" clip-rule="evenodd" d="M50.4999 49.865L49.5346 43.5975H47.839L46.352 47.0084L44.8781 43.5975H43.1498L42.2041 49.865H43.952L44.4346 46.2584L46.0976 49.878H46.6063L48.2694 46.2584L48.7585 49.8715L50.4999 49.865ZM55.0652 50.0215C55.7123 49.992 56.3365 49.7727 56.8598 49.3909C57.3832 49.0091 57.7826 48.4818 58.0083 47.8745C58.234 47.2673 58.2759 46.6071 58.129 45.9762C57.982 45.3453 57.6526 44.7715 57.1818 44.3266C56.711 43.8816 56.1196 43.585 55.4815 43.4738C54.8433 43.3626 54.1864 43.4417 53.5929 43.7012C52.9993 43.9607 52.4953 44.3892 52.1436 44.9333C51.7919 45.4773 51.6081 46.1128 51.6151 46.7606C51.6144 47.2052 51.7045 47.6453 51.8801 48.0537C52.0557 48.4622 52.313 48.8305 52.6361 49.1359C52.9592 49.4413 53.3414 49.6774 53.7591 49.8297C54.1768 49.982 54.6213 50.0473 55.0652 50.0215V50.0215ZM55.0652 48.4171C54.7293 48.4262 54.3983 48.3349 54.1146 48.1549C53.8309 47.9749 53.6073 47.7144 53.4724 47.4066C53.3375 47.0989 53.2975 46.7579 53.3574 46.4273C53.4174 46.0967 53.5745 45.7914 53.8089 45.5506C54.0432 45.3098 54.344 45.1443 54.6728 45.0754C55.0017 45.0064 55.3436 45.0371 55.6549 45.1635C55.9663 45.2899 56.2328 45.5063 56.4205 45.7849C56.6082 46.0636 56.7085 46.392 56.7087 46.728C56.7185 46.9485 56.6831 47.1688 56.6045 47.3751C56.526 47.5815 56.4061 47.7696 56.2521 47.9279C56.0981 48.0861 55.9134 48.2111 55.7093 48.2953C55.5051 48.3794 55.2859 48.4209 55.0652 48.4171V48.4171ZM63.0805 50.0215C63.8612 50.0414 64.6212 49.7688 65.2113 49.2572C65.8013 48.7456 66.1788 48.0319 66.2697 47.2562H64.5349C64.4671 47.5824 64.2883 47.875 64.0291 48.0842C63.7699 48.2935 63.4462 48.4065 63.1131 48.4041C62.6858 48.3774 62.2847 48.1889 61.9916 47.8769C61.6984 47.5649 61.5352 47.1528 61.5352 46.7247C61.5352 46.2966 61.6984 45.8845 61.9916 45.5725C62.2847 45.2605 62.6858 45.072 63.1131 45.0453C63.4318 45.0475 63.7413 45.1519 63.9961 45.3433C64.2509 45.5347 64.4375 45.8029 64.5284 46.1084H66.2762C66.1691 45.3509 65.7866 44.6595 65.2019 44.1663C64.6172 43.673 63.8713 43.4125 63.1066 43.4344C62.2331 43.4344 61.3954 43.7814 60.7777 44.3991C60.1601 45.0167 59.8131 45.8545 59.8131 46.728C59.8131 47.6015 60.1601 48.4392 60.7777 49.0568C61.3954 49.6745 62.2331 50.0215 63.1066 50.0215H63.0805ZM73.3589 49.865L71.1676 46.604L73.1763 43.5649H71.1741L69.5176 46.2062V43.5649H67.7958V49.8324H69.5241V47.0606L71.3241 49.8324L73.3589 49.865ZM78.4916 46.5519C78.7299 46.4136 78.9285 46.216 79.0679 45.9783C79.2073 45.7406 79.2829 45.4709 79.2873 45.1953C79.2873 44.2692 78.4786 43.591 77.3633 43.591H74.5329V49.8584H77.422C77.674 49.8798 77.9277 49.85 78.1679 49.7709C78.4081 49.6918 78.6299 49.565 78.8199 49.3982C79.0099 49.2313 79.1643 49.0278 79.2737 48.7998C79.3832 48.5718 79.4455 48.3241 79.4568 48.0715C79.4622 47.7515 79.3745 47.4369 79.2043 47.1659C79.034 46.895 78.7887 46.6794 78.4981 46.5453L78.4916 46.5519ZM77.6438 45.4823C77.647 45.5579 77.6338 45.6333 77.6053 45.7034C77.5768 45.7735 77.5336 45.8367 77.4786 45.8887C77.4235 45.9406 77.358 45.9801 77.2863 46.0045C77.2147 46.0289 77.1386 46.0377 77.0633 46.0301H76.1894V44.941H77.0633C77.1386 44.9334 77.2147 44.9422 77.2863 44.9666C77.358 44.991 77.4235 45.0305 77.4786 45.0824C77.5336 45.1344 77.5768 45.1976 77.6053 45.2677C77.6338 45.3378 77.647 45.4132 77.6438 45.4888V45.4823ZM77.1285 48.4432H76.1894V47.3214H77.1285C77.2086 47.3129 77.2896 47.3212 77.3662 47.346C77.4428 47.3708 77.5134 47.4114 77.5733 47.4652C77.6332 47.519 77.681 47.5849 77.7138 47.6584C77.7466 47.732 77.7636 47.8116 77.7636 47.8921C77.7636 47.9726 77.7466 48.0523 77.7138 48.1258C77.681 48.1993 77.6332 48.2652 77.5733 48.319C77.5134 48.3728 77.4428 48.4134 77.3662 48.4382C77.2896 48.463 77.2086 48.4713 77.1285 48.4628V48.4432ZM85.0265 49.8584H86.9244L84.4069 43.591H82.7178L80.259 49.8584H82.1438L82.4895 48.8345H84.7069L85.0526 49.8584H85.0265ZM84.2569 47.4845H82.8808L83.5656 45.5279L84.2569 47.4845Z" fill="#E30611"/>
<path fill-rule="evenodd" clip-rule="evenodd" d="M4.99673 26.3346C4.99673 23.628 6.60762 21.8541 9.0794 21.8541C10.8273 21.8541 12.0664 22.5063 12.6468 24.1824H16.7491C16.0969 19.8193 12.4316 17.9997 9.0794 17.9997C4.90542 17.9997 0.731445 20.7258 0.731445 26.3476C0.731445 31.8521 4.90542 34.6499 9.0794 34.6499C12.5555 34.6499 16.1686 32.8043 16.7947 28.1672H12.6925C12.249 29.9412 10.8533 30.776 9.0794 30.776C6.58154 30.776 4.99673 28.702 4.99673 26.3476V26.3346ZM118.014 24.3193V18.0584H113.716V34.4934H118.014V27.8868H119.97L123.635 34.4934H128.494V33.8412L123.577 26.015L128.325 18.6453V17.9932H123.629L120.062 24.2541L118.014 24.3193ZM100.124 18.0062L92.6372 33.913V34.4934H97.0916L98.0242 32.4651H104.135L105.094 34.4934H109.535V33.913L102.1 18.0062H100.124ZM101.083 24.9585L102.785 28.8716H99.4003L101.083 24.9585V24.9585ZM77.6044 18.1693V21.8867H81.6153V34.4804H85.7436V21.8867H89.7285V18.1693H77.6044ZM60.8628 18.1693V34.4739H65.1868V30.2281H68.1216C71.9956 30.2281 73.9913 27.2411 73.9913 24.2672C73.9913 21.2932 72.0347 18.1432 68.1216 18.1432C65.6955 18.1432 63.3411 18.1432 60.9476 18.1432L60.8628 18.1693ZM65.0629 21.8802H68.0694C69.2368 21.8802 69.8434 23.015 69.8434 24.1759C69.8434 25.3368 69.1912 26.5433 68.0694 26.5433H65.0629V21.8867V21.8802ZM47.2452 18.0062L39.7907 33.913V34.4934H44.2452L45.1778 32.4651H51.2887L52.2474 34.4934H56.6562V33.913L49.2344 18.0062H47.2452ZM48.23 24.9585L49.9322 28.8716H46.5539L48.23 24.9585ZM22.0187 18.1693V34.4739H26.284V22.0171H31.3189V34.4934H35.5842V18.1888L22.0187 18.1693Z" fill="#E30611"/>
<path fill-rule="evenodd" clip-rule="evenodd" d="M91.6717 45.8223H128.083V47.6353H91.6717V45.8223ZM1.07031 45.8223H37.4817V47.6353H1.07031V45.8223Z" fill="#E30611"/>
</svg>
