<svg width="35" height="22" viewBox="0 0 35 22" fill="none" xmlns="http://www.w3.org/2000/svg">
<path d="M34.3352 17.8637V17.4492H34.2272L34.1024 17.7337L33.9782 17.4492H33.8699V17.8637H33.9466V17.5515L34.0633 17.8209H34.1428L34.2595 17.5508V17.8637H34.3355H34.3352ZM33.6504 17.8637V17.5202H33.7886V17.4503H33.4355V17.5202H33.5737V17.8637H33.6497H33.6504Z" fill="#F79410"/>
<path d="M22.0674 19.6412H12.7266V2.85449H22.0676L22.0674 19.6412Z" fill="#FF5F00"/>
<path d="M13.3186 11.2473C13.3186 7.84211 14.9129 4.80875 17.3957 2.85392C15.5164 1.37203 13.1919 0.567764 10.7986 0.571301C4.90307 0.571301 0.124023 5.35103 0.124023 11.2473C0.124023 17.1436 4.90307 21.9233 10.7986 21.9233C13.192 21.9269 15.5165 21.1226 17.3959 19.6407C14.9133 17.6862 13.3186 14.6527 13.3186 11.2473Z" fill="#EB001B"/>
<path d="M34.6692 11.2483C34.6692 17.1445 29.8902 21.9243 23.9946 21.9243C21.601 21.9278 19.2762 21.1235 17.3965 19.6416C19.88 17.6868 21.4744 14.6536 21.4744 11.2483C21.4744 7.84291 19.88 4.80972 17.3965 2.8549C19.2762 1.37306 21.6009 0.568803 23.9944 0.572277C29.89 0.572277 34.669 5.35201 34.669 11.2483" fill="#F79E1B"/>
</svg>
