<svg width="37" height="19" viewBox="0 0 37 19" fill="none" xmlns="http://www.w3.org/2000/svg">
<path d="M2.37793 9.43686L18.2864 1.71582L34.7649 9.90324L18.6491 17.9352L2.37793 9.43686Z" fill="white"/>
<path fill-rule="evenodd" clip-rule="evenodd" d="M17.4245 12.6132C18.6611 13.1581 20.2405 12.9054 21.3477 11.3291H21.6778L21.692 12.3447C21.3622 12.6449 20.9973 12.9042 20.6054 13.117C19.9211 13.4748 19.1645 13.6726 18.3927 13.6953C17.6209 13.718 16.854 13.5651 16.1499 13.2481L16.0851 13.2181H16.0741C15.6254 13.0071 15.214 12.7244 14.8564 12.381C14.1464 11.7073 13.7276 10.783 13.6892 9.805V9.68496C13.6892 9.64811 13.6892 9.61126 13.6892 9.5744C13.6909 8.87913 13.8826 8.19753 14.2435 7.60331C15.3949 5.77436 18.0673 4.91832 20.5154 6.07287L20.607 6.11709L21.5688 5.64327V7.86549H21.2387C20.8659 7.28876 20.3283 6.8375 19.6956 6.57038C18.1162 5.93862 16.2873 6.74253 15.6982 8.56674C15.6813 8.61939 15.665 8.67204 15.6492 8.72469C15.1596 10.511 16.0899 12.0225 17.4197 12.61L17.4245 12.6132ZM22.1216 5.36056L22.3791 5.23104L18.5032 3.28996L5.8348 9.60757L9.71223 11.555L13.1459 9.84132C13.1952 10.9526 13.6722 12.0019 14.4773 12.7695C14.7944 13.0781 15.1507 13.3436 15.5371 13.5592L14.6194 14.0173L18.489 15.9536L31.1574 9.636L27.2878 7.6886L21.095 10.7795H21.0602L21.0413 10.8063L18.1194 12.2657C16.7753 11.9783 15.714 10.5805 16.1815 8.87315C16.246 8.63372 16.3393 8.40302 16.4594 8.18611L18.9628 6.93996C19.336 7.00827 19.6911 7.15314 20.0056 7.36543C20.3201 7.57773 20.5872 7.85285 20.7902 8.17347L20.9481 8.41512H22.1216V5.36056ZM3.37882 9.61231L18.489 17.1824L33.6197 9.63126L18.5048 2.06118L3.37882 9.61231ZM0.922852 9.61231L18.489 18.4112L36.0772 9.63284L18.5048 0.833984L0.922852 9.61231Z" fill="#E30611"/>
</svg>
