<svg width="12" height="13" viewBox="0 0 12 13" fill="none" xmlns="http://www.w3.org/2000/svg">
<path d="M5.98008 11.6598H1.49501C1.21992 11.6598 0.99668 11.4365 0.99668 11.1614V2.19132C0.99668 1.91623 1.21995 1.69299 1.49501 1.69299H5.98008C6.25566 1.69299 6.47841 1.47024 6.47841 1.19466C6.47841 0.919086 6.25566 0.696289 5.98008 0.696289H1.49501C0.670758 0.696289 0 1.36707 0 2.19132V11.1614C0 11.9857 0.670758 12.6564 1.49501 12.6564H5.98008C6.25566 12.6564 6.47841 12.4337 6.47841 12.1581C6.47841 11.8825 6.25566 11.6598 5.98008 11.6598Z" fill="#E30611"/>
<path d="M11.8511 6.32198L8.82118 3.33195C8.62583 3.13859 8.3099 3.14109 8.11654 3.33694C7.92318 3.53278 7.92517 3.84823 8.12153 4.04159L10.2868 6.17845H4.48465C4.20908 6.17845 3.98633 6.4012 3.98633 6.67678C3.98633 6.95236 4.20908 7.17513 4.48465 7.17513H10.2868L8.12153 9.312C7.9252 9.50536 7.9237 9.8208 8.11654 10.0166C8.2142 10.1153 8.34278 10.1651 8.47136 10.1651C8.59794 10.1651 8.72451 10.1173 8.82118 10.0216L11.8511 7.03158C11.9458 6.9379 11.9996 6.8103 11.9996 6.67676C11.9996 6.54326 11.9463 6.41618 11.8511 6.32198Z" fill="#E30611"/>
</svg>
