<svg width="20" height="24" viewBox="0 0 20 24" fill="none" xmlns="http://www.w3.org/2000/svg">
<path d="M5.8213 23.1323L6.22611 20.5611L5.32438 20.5402H1.01855L4.01089 1.56681C4.01979 1.50884 4.04924 1.456 4.09385 1.41792C4.13846 1.37985 4.19527 1.35907 4.25393 1.35938H11.5142C13.9244 1.35938 15.5878 1.86094 16.4562 2.8509C16.8634 3.31531 17.1227 3.80061 17.248 4.33468C17.3796 4.89507 17.3819 5.56459 17.2535 6.38117L17.2442 6.44077V6.964L17.6513 7.19466C17.9621 7.35212 18.2415 7.56513 18.4756 7.82316C18.8239 8.22022 19.0492 8.72488 19.1444 9.32319C19.2427 9.93853 19.2102 10.6707 19.0492 11.4997C18.8634 12.4533 18.5631 13.2838 18.1575 13.9634C17.7997 14.5722 17.3185 15.0995 16.7449 15.5114C16.2062 15.8938 15.5661 16.184 14.8424 16.3698C14.1412 16.5525 13.3416 16.6446 12.4646 16.6446H11.8996C11.4956 16.6446 11.1032 16.7901 10.7951 17.0509C10.4875 17.3146 10.2834 17.6788 10.2192 18.0788L10.1767 18.3102L9.46148 22.8421L9.42897 23.0085C9.42046 23.0611 9.40575 23.0875 9.38408 23.1053C9.36308 23.1224 9.33689 23.132 9.30977 23.1323H5.8213Z" fill="#253B80"/>
<path d="M18.0384 6.50098C18.0168 6.63953 17.992 6.78118 17.9641 6.9267C17.0066 11.8427 13.7309 13.5409 9.54714 13.5409H7.41697C6.90532 13.5409 6.47418 13.9125 6.39445 14.4172L5.30382 21.334L4.99497 23.2947C4.98267 23.3725 4.98737 23.452 5.00874 23.5278C5.03012 23.6035 5.06766 23.6738 5.11879 23.7337C5.16991 23.7936 5.23341 23.8416 5.30491 23.8746C5.3764 23.9076 5.4542 23.9247 5.53294 23.9248H9.31106C9.75846 23.9248 10.1385 23.5997 10.209 23.1585L10.2461 22.9665L10.9575 18.4523L11.0031 18.2046C11.0728 17.7618 11.4536 17.4367 11.901 17.4367H12.4661C16.1265 17.4367 18.9921 15.9505 19.8296 11.6499C20.1794 9.85337 19.9983 8.35327 19.0726 7.29824C18.7791 6.97188 18.4287 6.70171 18.0384 6.50098V6.50098Z" fill="#179BD7"/>
<path d="M17.0359 6.10177C16.7302 6.01332 16.4192 5.9443 16.1047 5.89509C15.4834 5.79961 14.8555 5.7538 14.2269 5.75809H8.53612C8.31954 5.75792 8.11005 5.83524 7.94552 5.97607C7.78098 6.11689 7.67226 6.31194 7.639 6.52594L6.42839 14.1936L6.39355 14.4173C6.43127 14.1733 6.5551 13.9507 6.74265 13.79C6.9302 13.6293 7.16908 13.541 7.41607 13.5411H9.54625C13.73 13.5411 17.0057 11.8421 17.9632 6.9269C17.9919 6.78138 18.0159 6.63973 18.0375 6.50117C17.7849 6.36868 17.5216 6.2576 17.2503 6.16911C17.1792 6.14551 17.1077 6.12306 17.0359 6.10177V6.10177Z" fill="#222D65"/>
<path d="M7.63986 6.52579C7.67283 6.31173 7.7815 6.11659 7.94612 5.97583C8.11074 5.83508 8.32039 5.75804 8.53698 5.75871H14.2278C14.902 5.75871 15.5313 5.80283 16.1056 5.89572C16.4943 5.9568 16.8775 6.04816 17.252 6.16896C17.5345 6.26262 17.7969 6.3733 18.0392 6.50102C18.324 4.68433 18.0369 3.44741 17.0546 2.32736C15.9717 1.09431 14.0172 0.566406 11.5163 0.566406H4.25572C3.74485 0.566406 3.30907 0.937949 3.23011 1.4434L0.205913 20.6127C0.191827 20.7017 0.197186 20.7927 0.221622 20.8794C0.246058 20.9661 0.288991 21.0465 0.347468 21.1151C0.405945 21.1836 0.478578 21.2387 0.56037 21.2765C0.642163 21.3143 0.731173 21.334 0.82128 21.3341H5.30378L6.42925 14.1935L7.63986 6.52579Z" fill="#253B80"/>
</svg>
