<svg width="16" height="14" viewBox="0 0 16 14" fill="#bfbebe" xmlns="http://www.w3.org/2000/svg">
    <path
        d="M14.0758 2.66591H11.7626V2.42827C11.7626 1.36656 10.9009 0.504883 9.83918 0.504883H6.16039C5.09825 0.504883 4.237 1.36656 4.237 2.42827V2.66591H1.92339C0.861249 2.66591 0 3.52716 0 4.5893V11.5708C0 12.6325 0.861249 13.4941 1.92339 13.4941H14.0766C15.1388 13.4941 16 12.6325 16 11.5708V4.5893C15.9991 3.52673 15.1379 2.66591 14.0758 2.66591ZM7.99915 11.499C5.99541 11.499 4.36608 9.86963 4.36608 7.86589C4.36608 5.86258 5.99541 4.23283 7.99915 4.23283C10.0029 4.23283 11.6322 5.86215 11.6322 7.86589C11.6322 9.86963 10.0025 11.499 7.99915 11.499ZM9.92253 7.86589C9.92253 8.92546 9.05914 9.78928 7.99915 9.78928C6.93915 9.78928 6.07576 8.92546 6.07576 7.86589C6.07576 6.80589 6.93915 5.94251 7.99915 5.94251C9.05914 5.94251 9.92253 6.80589 9.92253 7.86589Z"
        fill="#bfbebe" />
</svg>