<svg width="23" height="24" viewBox="0 0 23 24" fill="none" xmlns="http://www.w3.org/2000/svg">
<path d="M20.5588 5.05176C21.1 5.76082 21.5581 6.53116 21.9239 7.3473L11.5468 15.0998L7.20996 12.3446V9.02997L11.5468 11.7852L20.5588 5.05176Z" fill="#21A038"/>
<path d="M2.78419 12.11C2.78419 11.9613 2.78777 11.8136 2.79492 11.6667L0.166658 11.5361C0.157712 11.7265 0.152347 11.9187 0.152347 12.1127C0.151229 13.6285 0.445408 15.1295 1.01802 16.5296C1.59062 17.9299 2.43038 19.2017 3.48912 20.2723L5.35341 18.3838C4.53843 17.5612 3.8919 16.5834 3.45099 15.5068C3.01007 14.4301 2.78347 13.2757 2.78419 12.11Z" fill="url(#paint0_linear)"/>
<path d="M11.5449 3.23186C11.6916 3.23186 11.8374 3.2373 11.9823 3.24455L12.1138 0.580013C11.9254 0.570947 11.7358 0.566415 11.5449 0.566415C10.0486 0.564566 8.56676 0.862273 7.18434 1.44244C5.80191 2.02261 4.54618 2.87382 3.48926 3.94719L5.35355 5.83657C6.16528 5.01035 7.13015 4.35489 8.1927 3.90788C9.25524 3.46087 10.3944 3.23113 11.5449 3.23186Z" fill="url(#paint1_linear)"/>
<path d="M11.5444 20.9885C11.3977 20.9885 11.2519 20.9885 11.1061 20.9767L10.9746 23.6404C11.1637 23.65 11.3536 23.6549 11.5444 23.6549C13.0401 23.6565 14.5213 23.3586 15.903 22.7782C17.2846 22.1979 18.5396 21.3466 19.5957 20.2732L17.735 18.3848C16.9231 19.2105 15.9583 19.8656 14.896 20.3125C13.8336 20.7593 12.6946 20.9891 11.5444 20.9885Z" fill="url(#paint2_linear)"/>
<path d="M16.4827 4.78121L18.6977 3.12663C16.6732 1.46523 14.1461 0.560818 11.541 0.565447V3.2318C13.305 3.22958 15.0281 3.76985 16.4827 4.78121Z" fill="url(#paint3_linear)"/>
<path d="M22.9368 12.1099C22.9382 11.4163 22.8783 10.7238 22.7578 10.041L20.3058 11.8724C20.3058 11.9513 20.3058 12.0301 20.3058 12.1099C20.3065 13.3504 20.0499 14.5772 19.5528 15.7108C19.0556 16.8443 18.3289 17.8594 17.4199 18.6901L19.1885 20.6711C20.3703 19.5899 21.3147 18.269 21.9604 16.7942C22.6061 15.3194 22.9388 13.7234 22.9368 12.1099Z" fill="#21A038"/>
<path d="M11.5442 20.9892C10.32 20.9896 9.10947 20.7295 7.99081 20.2257C6.8722 19.7219 5.87044 18.9855 5.05043 18.0645L3.09668 19.8559C4.16342 21.0538 5.46669 22.011 6.92196 22.6656C8.37723 23.3201 9.95198 23.6574 11.5442 23.6555V20.9892Z" fill="url(#paint4_linear)"/>
<path d="M5.6701 5.52978L3.90241 3.54883C2.7203 4.62985 1.77558 5.95062 1.12954 7.42548C0.483511 8.90032 0.150582 10.4963 0.152351 12.11H2.7842C2.78365 10.8695 3.04027 9.64273 3.53741 8.50917C4.03456 7.37565 4.76115 6.36058 5.6701 5.52978Z" fill="url(#paint5_linear)"/>
<defs>
<linearGradient id="paint0_linear" x1="4.02139" y1="19.9396" x2="1.07684" y2="11.5405" gradientUnits="userSpaceOnUse">
<stop offset="0.14" stop-color="#F1E813"/>
<stop offset="0.3" stop-color="#E6E418"/>
<stop offset="0.58" stop-color="#C9DA26"/>
<stop offset="0.89" stop-color="#A2CC39"/>
</linearGradient>
<linearGradient id="paint1_linear" x1="4.2407" y1="4.41863" x2="11.6717" y2="1.62436" gradientUnits="userSpaceOnUse">
<stop offset="0.06" stop-color="#0FA7DF"/>
<stop offset="0.54" stop-color="#0098F8"/>
<stop offset="0.92" stop-color="#0290EA"/>
</linearGradient>
<linearGradient id="paint2_linear" x1="10.8011" y1="22.0456" x2="19.1868" y2="20.1764" gradientUnits="userSpaceOnUse">
<stop offset="0.12" stop-color="#A2CC39"/>
<stop offset="0.28" stop-color="#86C239"/>
<stop offset="0.87" stop-color="#219F38"/>
</linearGradient>
<linearGradient id="paint3_linear" x1="10.9936" y1="1.45846" x2="18.1702" y2="3.64374" gradientUnits="userSpaceOnUse">
<stop offset="0.06" stop-color="#0290EA"/>
<stop offset="0.79" stop-color="#0C89CA"/>
</linearGradient>
<linearGradient id="paint4_linear" x1="3.75687" y1="19.5313" x2="11.5757" y2="22.4147" gradientUnits="userSpaceOnUse">
<stop offset="0.13" stop-color="#F1E813"/>
<stop offset="0.3" stop-color="#EAE616"/>
<stop offset="0.53" stop-color="#D8DF1F"/>
<stop offset="0.8" stop-color="#BAD52D"/>
<stop offset="0.98" stop-color="#A2CC39"/>
</linearGradient>
<linearGradient id="paint5_linear" x1="1.1328" y1="12.4327" x2="4.33474" y2="4.21395" gradientUnits="userSpaceOnUse">
<stop offset="0.07" stop-color="#A2CC39"/>
<stop offset="0.26" stop-color="#81C45E"/>
<stop offset="0.92" stop-color="#0FA7DF"/>
</linearGradient>
</defs>
</svg>
