<svg width="13" height="13" viewBox="0 0 13 13" fill="none" xmlns="http://www.w3.org/2000/svg">
<path d="M1.27307 6.9502C1.59916 6.9502 1.86346 7.2145 1.86346 7.54059V10.847L10.6669 2.04357H7.36048C7.03439 2.04357 6.77009 1.77927 6.77009 1.45318C6.77009 1.12709 7.03439 0.862793 7.36048 0.862793H12.0922C12.4183 0.862793 12.6826 1.12709 12.6826 1.45318V6.18493C12.6826 6.51102 12.4183 6.77532 12.0922 6.77532C11.7661 6.77532 11.5018 6.51102 11.5018 6.18493V2.87857L2.69839 11.682H6.00482C6.33091 11.682 6.59521 11.9463 6.59521 12.2724C6.59521 12.5985 6.33091 12.8628 6.00482 12.8628H1.27307C0.94698 12.8628 0.682684 12.5985 0.682684 12.2724V7.54066C0.682684 7.21456 0.94698 6.9502 1.27307 6.9502Z" fill="#E30611"/>
</svg>
