<svg width="26" height="33" viewBox="0 0 26 33" fill="none" xmlns="http://www.w3.org/2000/svg">
<path d="M9.20311 15.751L7.6875 16.4476L9.29725 17.8879L9.4667 16.7959L9.20311 15.751Z" fill="#292525"/>
<path d="M8.09863 29.4348L8.69131 28.2979L10.2879 28.7575L10.0581 30.3057L8.69131 30.1363L8.09863 29.4348Z" fill="#E30611" stroke="#292525" stroke-width="0.0572203" stroke-linecap="round" stroke-linejoin="round"/>
<path d="M17.0085 21.8652L15.9287 23.5586L17.3031 24.5403H18.6038L18.2357 22.6751L17.0085 21.8652Z" fill="#E30611" stroke="#292525" stroke-width="0.0572203" stroke-linecap="round" stroke-linejoin="round"/>
<path d="M18.3108 25.9531L17.4629 25.0054V24.7311H18.635L18.3108 23.958V22.6363L18.8843 22.4119L21.0041 21.2148H21.9767L21.4779 23.2847L18.8843 26.2523L18.3108 25.9531Z" fill="white" stroke="#292525" stroke-width="0.0572203" stroke-linecap="round" stroke-linejoin="round"/>
<path d="M5.24475 14.0246L4.64355 10.2101L5.1092 7.2664L7.86776 5.46777H10.7304L12.0316 5.72801L11.6673 7.2664L12.4376 7.89161L13.3089 7.2664L15.921 15.7245L14.3869 15.3513L13.7857 16.0976L15.4234 19.4352L12.1895 19.6633L9.24574 17.9012V16.0976L4.64355 17.3L5.36912 15.3513L5.24475 14.0246Z" fill="#E8AB55"/>
<path d="M13.7915 15.9928C14.1828 15.8669 14.2961 15.7183 14.3841 15.3697L14.0954 15.2937L13.138 12.376L12.211 12.5887L10.585 12.8775L10.7977 14.23L13.138 14.1084L13.7915 15.9928Z" fill="#292525"/>
<path d="M11.5822 28.6626H10.285L10.1671 30.3922L11.3464 30.5494L11.5822 29.9598V28.6626Z" fill="#EFCF9E"/>
<path d="M16.083 23.3167L17.0461 21.9802L16.3386 21.194L15.2183 21.5085L15.0807 23.3167H16.083Z" fill="#EFCF9E"/>
<path d="M5.47287 20.0155L5.61799 20.9069L4.56074 21.3837L4.29124 23.2288L4.72658 24.9287L4.29124 25.1774L2.65353 25.8823L2.21819 25.4884L1.45117 23.5397L2.52915 22.213L3.73152 20.0155L4.72658 19.207L5.47287 20.0155Z" fill="#EFCF9E"/>
<path d="M4.72601 23.7054L5.99059 21.6738L6.94418 22.6482L6.5503 25.2395L5.41012 26.3797L3.95898 26.8565V25.8614L4.72601 24.7212V23.7054Z" fill="#EFCF9E"/>
<path d="M13.2221 3.92235L15.2659 2.7869L13.9857 1.8345H12.744L12.6293 1.37602L10.8527 0.898438H8.59854L7.39503 1.49064L7.01296 1.20409L6.03869 1.60526L3.03946 3.92235L1.32015 6.9351L1.66402 7.77565L1.05271 8.55888L0.74707 10.794L1.79776 14.4236L2.21803 14.672L1.32015 16.3531L2.44727 16.1238L3.40243 15.1495L4.07104 13.4302L4.24298 10.794L4.79697 7.77565L7.12853 5.77692L9.6265 5.17134L11.8974 5.77692L13.2221 3.92235Z" fill="#E30611"/>
<path d="M15.9287 23.5094L17.0085 21.8896L18.4565 23.0186V23.7058L18.2602 24.4666L17.4012 24.982L15.9287 23.5094Z" stroke="#292525" stroke-width="0.001" stroke-linecap="round" stroke-linejoin="round"/>
<path d="M12.2719 22.2579L15.1433 21.3989L14.7506 25.6938L12.2719 25.4974L13.1554 27.878L11.462 28.4916H9.37591L9.20412 26.6509L8.39423 25.3256L6.86132 21.5909L5.55528 20.7203L4.9541 18.896L8.20879 17.2168L10.5928 18.896L10.6757 20.1191L12.2719 22.2579Z" fill="#E30611" stroke="#292525" stroke-width="0.001" stroke-linecap="round" stroke-linejoin="round"/>
<path d="M6.88184 21.6745L10.5304 20.4307L10.9036 20.8453L7.56594 22.9805L6.88184 21.6745Z" fill="white" stroke="#292525" stroke-width="0.001" stroke-linecap="round" stroke-linejoin="round"/>
<path d="M11.8722 5.65491C12.4828 4.28712 13.1839 3.64334 15.2876 2.78894L13.966 1.76432C13.3457 1.81449 13.0004 1.9101 12.3919 2.31376L12.8077 1.40793C10.8741 0.641795 9.78725 0.553975 7.84794 1.06639L7.5361 1.76432L7.12031 1.06639C3.6357 2.69636 2.41281 4.07372 1.32898 7.22896L1.65565 7.83779C1.31906 8.16943 0.681523 9.14455 0.824079 10.3919C0.966635 11.6393 1.43786 13.6638 1.65565 14.5201H2.20509C2.17044 14.827 2.01205 15.5269 1.65565 15.8714C1.29926 16.2159 0.863675 16.5495 0.69043 16.6733C1.18046 16.797 2.35951 16.7238 3.15544 15.4408C3.95138 14.1578 4.03157 13.4212 3.97217 13.2133V12.9757L4.26916 12.753" stroke="#292525" stroke-width="0.6" stroke-linecap="round" stroke-linejoin="round"/>
<path d="M11.5499 7.39836C11.6736 6.7747 11.8232 6.42819 12.2549 5.81694C10.4784 5.20694 9.46374 4.96959 7.47252 5.56925C5.71361 6.43011 5.03935 7.13356 4.46212 8.82735C4.00042 10.4483 3.90568 11.3663 4.3478 13.0381L4.91941 12.9047" stroke="#292525" stroke-width="0.6" stroke-linecap="round" stroke-linejoin="round"/>
<path d="M15.4998 19.4192C12.7923 20.3433 11.0398 19.5605 7.60059 16.4297" stroke="#292525" stroke-width="0.6" stroke-linecap="round" stroke-linejoin="round"/>
<path d="M15.5218 19.3752C14.2399 17.2813 13.7188 16.1109 13.1214 14.029L10.7648 14.2472L10.5902 12.8507C11.5655 12.7542 12.1182 12.6551 13.1214 12.3488L14.0815 15.2947L15.9581 15.9711C14.682 12.4321 14.1134 10.4449 13.4051 6.89355C10.7883 10.2055 8.96348 11.7593 5.11309 14.029L5.59314 15.4256L4.24023 17.6077C6.15982 17.0541 7.25321 16.6608 9.25908 15.6874C9.52651 16.8443 9.53698 17.3346 9.25908 17.8725L8.26158 17.0502L9.40123 16.3813" stroke="#292525" stroke-width="0.6" stroke-linecap="round" stroke-linejoin="round"/>
<path d="M8.37793 30.1659L9.0121 30.0652L11.277 30.6994C11.5787 30.0971 11.6381 29.646 11.579 28.666" stroke="#292525" stroke-width="0.6" stroke-linecap="round" stroke-linejoin="round"/>
<path d="M10.28 28.626C10.3589 29.4729 10.3235 29.856 10.0586 30.307" stroke="#292525" stroke-width="0.6" stroke-linecap="round" stroke-linejoin="round"/>
<path d="M17.4648 25.2312L17.7083 24.4623C18.1079 24.6022 18.3147 24.6161 18.6694 24.5905C18.6823 24.2195 18.6054 24.0051 18.3875 23.6166L18.5028 23.2706L18.3234 22.8349L18.2081 21.6175L18.8488 22.553C19.2531 22.1655 19.5101 21.9585 20.0534 21.6175C20.7949 21.193 21.2222 21.0561 22.0012 20.9512C22.1239 21.6161 21.8811 22.2962 21.0016 23.9498C20.3043 25.1503 19.826 25.6408 18.8488 26.2564C18.2882 26.0005 17.982 25.7974 17.4648 25.2312Z" stroke="#292525" stroke-width="0.6" stroke-linecap="round" stroke-linejoin="round"/>
<path d="M11.0831 20.8486L7.29004 22.9246" stroke="#292525" stroke-width="0.6" stroke-linecap="round" stroke-linejoin="round"/>
<path d="M10.8396 20.2715C9.07526 20.5767 8.21489 20.8357 6.98242 21.5017" stroke="#292525" stroke-width="0.6" stroke-linecap="round" stroke-linejoin="round"/>
<path d="M7.76477 20.1698L5.89386 21.8357C5.73288 20.5582 5.45342 19.9101 4.59961 18.8755L7.92229 17.4489L8.39602 17.0039" stroke="#292525" stroke-width="0.6" stroke-linecap="round" stroke-linejoin="round"/>
<path d="M5.36816 20.9766C5.49004 21.3123 5.60289 21.5034 5.88074 21.8479" stroke="#292525" stroke-width="0.6" stroke-linecap="round" stroke-linejoin="round"/>
<path d="M4.79168 19.1953L3.77931 19.977L2.58758 22.1554L1.25488 23.6291L2.19033 25.0771L2.04937 25.4616L2.75416 26.1536C3.22192 25.7335 3.49431 25.4565 4.03561 24.7312" stroke="#292525" stroke-width="0.6" stroke-linecap="round" stroke-linejoin="round"/>
<path d="M5.56083 20.8105L4.9073 21.1822L4.20249 23.0146L4.80476 24.2704L4.20249 25.6032L3.53613 25.4622" stroke="#292525" stroke-width="0.6" stroke-linecap="round" stroke-linejoin="round"/>
<path d="M5.82965 21.7451L5.08643 23.2829L4.50977 23.616" stroke="#292525" stroke-width="0.6" stroke-linecap="round" stroke-linejoin="round"/>
<path d="M6.23926 21.6299L6.96968 22.2962" stroke="#292525" stroke-width="0.6" stroke-linecap="round" stroke-linejoin="round"/>
<path d="M7.00816 22.3223L6.53403 23.9369V25.3977C6.0195 25.8082 5.81996 26.074 5.66264 26.6279L4.76562 25.8334L5.29103 25.1286L4.76562 24.2701" stroke="#292525" stroke-width="0.6" stroke-linecap="round" stroke-linejoin="round"/>
<path d="M4.10002 25.6152V25.9997L3.74121 26.1022L4.10002 26.9223C4.52054 26.8246 4.76453 26.7237 5.24052 26.32" stroke="#292525" stroke-width="0.6" stroke-linecap="round" stroke-linejoin="round"/>
<path d="M5.53925 29.8206C5.91284 28.8866 6.48879 27.7502 6.73007 27.2988C7.47168 27.3742 8.26866 27.8249 8.57444 28.0408C8.54939 28.2318 8.49365 28.6496 8.4711 28.7924C8.44856 28.9352 8.06714 29.2652 7.87925 29.4124C7.91648 29.4395 8.03764 29.559 8.22444 29.8206C8.41123 30.0821 8.59802 30.5677 8.66807 30.7779L7.75745 30.451C7.56287 30.7545 7.08499 31.4457 6.73007 31.7819C6.37514 32.1181 5.30576 32.2177 4.81543 32.2255C4.90104 31.813 5.16567 30.7545 5.53925 29.8206Z" fill="white" stroke="#292525" stroke-width="0.6" stroke-linecap="round" stroke-linejoin="round"/>
<path d="M8.59375 28.1592C8.75233 28.2577 9.20063 28.478 9.72522 28.5706C10.381 28.6863 11.2038 28.7635 12.001 28.5063C12.6387 28.3006 13.0296 28.0606 13.1453 27.9663L12.3353 25.3819C12.2839 25.1034 12.2659 24.4022 12.6053 23.8262" stroke="#292525" stroke-width="0.6" stroke-linecap="round" stroke-linejoin="round"/>
<path d="M9.17188 28.4164L9.26187 27.0664" stroke="#292525" stroke-width="0.6" stroke-linecap="round" stroke-linejoin="round"/>
<path d="M8.375 25.4209C8.60861 25.8612 8.79133 26.0968 9.24931 26.4881L9.00502 26.9895C9.12931 27.0581 9.47303 27.1747 9.85362 27.0924" stroke="#292525" stroke-width="0.6" stroke-linecap="round" stroke-linejoin="round"/>
<path d="M7.98926 25.5746C8.64928 25.1418 10.1108 24.1706 10.6765 23.7489C11.2422 23.3271 12.0094 22.6131 12.3223 22.3088C11.2031 21.2689 10.7581 20.5916 10.6765 19.0156" stroke="#292525" stroke-width="0.6" stroke-linecap="round" stroke-linejoin="round"/>
<path d="M6.88086 21.0156C7.13285 22.8443 7.3859 23.8417 8.00853 25.5776" stroke="#292525" stroke-width="0.6" stroke-linecap="round" stroke-linejoin="round"/>
<path d="M12.3516 25.4998L14.8633 25.7432C14.8523 23.8506 14.9527 22.8821 15.3374 21.3223C13.9075 21.8532 13.238 22.0704 12.2363 22.3218" stroke="#292525" stroke-width="0.6" stroke-linecap="round" stroke-linejoin="round"/>
<path d="M14.9531 23.373H15.722L17.4904 24.8852" stroke="#292525" stroke-width="0.6" stroke-linecap="round" stroke-linejoin="round"/>
<path d="M15.1709 21.3994L16.0807 21.1943L18.3617 22.8602" stroke="#292525" stroke-width="0.6" stroke-linecap="round" stroke-linejoin="round"/>
<path d="M17.0936 21.9502C16.5228 22.4194 16.2747 22.7707 15.9531 23.5648" stroke="#292525" stroke-width="0.6" stroke-linecap="round" stroke-linejoin="round"/>
<path d="M12.3839 8.01835C10.5055 6.65319 9.47612 6.36916 7.69543 6.88596C6.12045 7.61092 5.4958 8.26067 4.83467 9.84606C4.48742 11.5405 4.63975 12.4138 5.33132 13.8789" stroke="#292525" stroke-width="0.6" stroke-linecap="round" stroke-linejoin="round"/>
<path d="M14.5944 15C14.5369 15.2045 14.3375 15.5222 14 15.6142" stroke="#292525" stroke-width="0.6" stroke-linecap="round" stroke-linejoin="round"/>
<circle cx="22.2151" cy="16.429" r="2.82842" fill="white" stroke="#292525" stroke-width="0.6"/>
<path d="M20.0163 14.6892L20.6876 14.0078V15.07L19.6455 15.3706L20.0163 14.6892Z" fill="#E30611"/>
<path d="M20.4371 17.9458L19.6455 17.3646L19.7557 17.8355L20.4371 18.6873V17.9458Z" fill="#E30611"/>
<circle cx="22.2151" cy="16.429" r="2.82842" stroke="#292525" stroke-width="0.6"/>
<path d="M23.0871 14.915L24.1688 15.6129V17.1831L23.0871 17.846C22.6037 17.5285 22.317 17.3998 21.7844 17.2412C21.8897 16.6184 21.8542 16.2605 21.6914 15.6129C22.3536 15.3848 22.6544 15.2301 23.0871 14.915Z" fill="#E30611" stroke="#292525" stroke-width="0.6" stroke-linecap="round" stroke-linejoin="round"/>
<path d="M19.5518 17.3105L20.4357 17.9154L20.5404 18.683" stroke="#292525" stroke-width="0.6" stroke-linecap="round" stroke-linejoin="round"/>
<path d="M20.6456 14.0771L20.727 15.0425L19.6221 15.4147" stroke="#292525" stroke-width="0.6" stroke-linecap="round" stroke-linejoin="round"/>
<path d="M22.7842 13.7041C23.0854 14.1992 23.0851 14.4053 23.0761 14.9498" stroke="#292525" stroke-width="0.6" stroke-linecap="round" stroke-linejoin="round"/>
<path d="M20.6797 14.9727L21.6683 15.624" stroke="#292525" stroke-width="0.6" stroke-linecap="round" stroke-linejoin="round"/>
<path d="M20.4004 17.9039C20.9821 17.7309 21.3123 17.6448 21.7961 17.2061" stroke="#292525" stroke-width="0.6" stroke-linecap="round" stroke-linejoin="round"/>
<path d="M23.0763 17.8105C23.106 18.3929 23.0746 18.597 22.9131 19.1243" stroke="#292525" stroke-width="0.6" stroke-linecap="round" stroke-linejoin="round"/>
<path d="M24.1465 17.1367L24.8186 17.4719" stroke="#292525" stroke-width="0.6" stroke-linecap="round" stroke-linejoin="round"/>
<path d="M24.7048 15.1699L24.1572 15.6245" stroke="#292525" stroke-width="0.6" stroke-linecap="round" stroke-linejoin="round"/>
</svg>
