<svg width="19" height="20" viewBox="0 0 19 20" fill="none" xmlns="http://www.w3.org/2000/svg">
<path fill-rule="evenodd" clip-rule="evenodd" d="M18.7246 10.2676C18.7246 15.4021 14.5622 19.5644 9.42771 19.5644C4.29321 19.5644 0.130859 15.4021 0.130859 10.2676C0.130859 5.13305 4.29321 0.970703 9.42771 0.970703C14.5622 0.970703 18.7246 5.13305 18.7246 10.2676ZM10.2602 7.60748C8.64802 8.27923 3.99959 10.1869 3.99959 10.1869C2.89795 10.6169 3.54278 11.0199 3.54278 11.0199C3.54278 11.0199 4.48321 11.3424 5.28933 11.5842C6.0954 11.826 6.52532 11.5573 6.52532 11.5573C6.52532 11.5573 8.40619 10.3213 10.3139 9.00468C11.6574 8.09114 11.335 8.84348 11.0125 9.16593C10.3139 9.86453 9.15853 10.9662 8.19121 11.8529C7.76132 12.2291 7.97626 12.5515 8.16436 12.7127C8.71139 13.1756 9.99976 14.0174 10.5847 14.3995C10.7468 14.5054 10.8549 14.5761 10.8782 14.5935C11.0125 14.7011 11.7649 15.1847 12.2217 15.0772C12.6784 14.9697 12.7322 14.3517 12.7322 14.3517C12.7322 14.3517 13.0815 12.1484 13.4039 10.1332C13.4636 9.73753 13.5234 9.35016 13.579 8.98895C13.7238 8.0501 13.8413 7.28801 13.8607 7.01635C13.9413 6.1028 12.974 6.47895 12.974 6.47895C12.974 6.47895 10.8782 7.3388 10.2602 7.60748Z" fill="white"/>
</svg>
