<svg width="30" height="29" viewBox="0 0 30 29" fill="none" xmlns="http://www.w3.org/2000/svg">
<path d="M25.6733 6.04883L26.2583 9.50912H3.64453L25.6733 6.04883Z" fill="#E30611"/>
<path d="M2.08496 14.334V9.65527H26.4533H27.623V14.334L26.4533 14.7239L25.4785 16.1373L25.8684 17.8918L27.623 18.769V23.4965H2.08496V18.769L3.54705 18.2329L4.08315 16.917L3.54705 15.0163L2.08496 14.334Z" fill="#E8AB55"/>
<path d="M27.6025 14.746C27.825 14.746 27.9808 14.568 28.003 14.3677V9.51657C28.003 9.29404 27.825 9.13827 27.6025 9.11602H26.5343L26.067 5.93386C26.0448 5.71133 25.8445 5.57781 25.6219 5.60007L19.5914 6.49018H19.5692L1.94491 9.13827C1.94491 9.13827 1.61112 9.20503 1.61112 9.51657V14.3454C1.61112 14.568 1.78914 14.7237 1.98942 14.746C2.96854 14.746 3.74739 15.5248 3.74739 16.504C3.74739 17.4831 2.96854 18.2619 1.98942 18.2619C1.76689 18.2619 1.61112 18.44 1.58887 18.6402V23.4691C1.58887 23.6916 1.76689 23.8474 1.98942 23.8697H27.5802C27.8027 23.8697 27.9585 23.6916 27.9807 23.4691V18.6625C27.9807 18.44 27.8027 18.2842 27.6025 18.2619C26.6233 18.2619 25.8445 17.4831 25.8445 16.504C25.8445 15.5248 26.6233 14.746 27.6025 14.746V14.746ZM19.3021 7.33579L19.4579 8.38167C19.4802 8.58195 19.6582 8.71547 19.8362 8.71547H19.903C20.1255 8.69321 20.259 8.49294 20.2368 8.27041L20.081 7.22452L25.3549 6.44567L25.7555 9.13827H7.26334L19.3021 7.33579ZM27.2242 19.0185V23.1131H21.4607V22.0449C21.4607 21.8224 21.2826 21.6444 21.0601 21.6444C20.8376 21.6444 20.6596 21.8224 20.6596 22.0449V23.1131H2.41222V19.0185C3.7919 18.796 4.74877 17.5053 4.52624 16.1257C4.34822 15.0353 3.50261 14.1674 2.41222 14.0116V9.91712H20.6818V10.963C20.6818 11.1855 20.8598 11.3636 21.0824 11.3636C21.3049 11.3636 21.4829 11.1855 21.4829 10.963V9.89487H27.2464V13.9894C25.8667 14.2119 24.9099 15.5026 25.1324 16.8823C25.2659 17.9949 26.1115 18.8405 27.2242 19.0185V19.0185Z" fill="#292525"/>
<path d="M21.0597 17.1045C20.8372 17.1045 20.6814 17.2825 20.6592 17.4828V20.0641C20.6592 20.2867 20.8372 20.4647 21.0597 20.4647C21.2823 20.4647 21.4603 20.2867 21.4603 20.0641V17.505C21.4603 17.2825 21.2823 17.1045 21.0597 17.1045Z" fill="#292525"/>
<path d="M21.0597 12.5654C20.8372 12.5654 20.6814 12.7435 20.6592 12.9437V15.5251C20.6592 15.7476 20.8372 15.9256 21.0597 15.9256C21.2823 15.9256 21.4603 15.7476 21.4603 15.5251V12.9437C21.4603 12.7435 21.2823 12.5654 21.0597 12.5654V12.5654Z" fill="#292525"/>
<path d="M6.64079 13.188H11.4697C11.6922 13.188 11.8702 13.01 11.8702 12.7875C11.8702 12.5649 11.6922 12.4092 11.4697 12.4092H6.64079C6.41826 12.4092 6.24023 12.5872 6.24023 12.8097C6.24023 13.0323 6.41826 13.188 6.64079 13.188Z" fill="#292525"/>
<path d="M16.2985 14.8789H6.64079C6.41826 14.8789 6.24023 15.0569 6.24023 15.2795C6.24023 15.502 6.41826 15.68 6.64079 15.68H16.2985C16.5211 15.68 16.6991 15.502 16.6991 15.2795C16.6991 15.0569 16.5211 14.8789 16.2985 14.8789Z" fill="#292525"/>
<path d="M16.2985 17.3496H6.64079C6.41826 17.3496 6.24023 17.5276 6.24023 17.7502C6.24023 17.9727 6.41826 18.1507 6.64079 18.1507H16.2985C16.5211 18.1507 16.6991 17.9727 16.6991 17.7502C16.6991 17.5276 16.5211 17.3496 16.2985 17.3496Z" fill="#292525"/>
<path d="M16.2985 19.8193H6.64079C6.41826 19.8193 6.24023 19.9974 6.24023 20.2199C6.24023 20.4424 6.41826 20.6204 6.64079 20.6204H16.2985C16.5211 20.6204 16.6991 20.4424 16.6991 20.2199C16.6991 19.9974 16.5211 19.8193 16.2985 19.8193Z" fill="#292525"/>
</svg>
