<svg width="13" height="13" viewBox="0 0 13 13" fill="none" xmlns="http://www.w3.org/2000/svg">
<path d="M6.5 0.481445C3.19173 0.481445 0.5 3.17317 0.5 6.48144C0.5 9.78971 3.19173 12.4814 6.5 12.4814C9.80827 12.4814 12.5 9.78971 12.5 6.48144C12.5 3.17317 9.80827 0.481445 6.5 0.481445ZM9.85338 4.9025L6.0188 8.70701C5.79323 8.93257 5.43233 8.94761 5.19173 8.72205L3.16165 6.87242C2.92105 6.64686 2.90601 6.27092 3.11654 6.03032C3.3421 5.78972 3.71804 5.77468 3.95865 6.00024L5.56767 7.47393L8.99624 4.04535C9.23684 3.80475 9.61278 3.80475 9.85338 4.04535C10.094 4.28596 10.094 4.6619 9.85338 4.9025Z" fill="#E30611"/>
</svg>
