<svg width="18" height="15" viewBox="0 0 18 15" fill="none" xmlns="http://www.w3.org/2000/svg">
<path d="M17.9783 2.03041C17.3569 2.29672 16.6468 2.47427 15.9366 2.56304C16.6468 2.11918 17.2682 1.40901 17.5345 0.610068C16.8243 1.05393 16.1141 1.32024 15.2264 1.49778C14.605 0.787611 13.6285 0.34375 12.652 0.34375C10.6991 0.34375 9.10117 1.94164 9.10117 3.89461C9.10117 4.16093 9.10117 4.42724 9.18995 4.69355C6.26048 4.51601 3.59733 3.09567 1.8219 0.965149C1.55558 1.49778 1.37804 2.11918 1.37804 2.74058C1.37804 3.98338 1.99944 5.04865 2.97593 5.67005C2.35453 5.67005 1.8219 5.4925 1.37804 5.22619C1.37804 6.91285 2.62084 8.42196 4.21873 8.68828C3.95241 8.77705 3.59734 8.77705 3.24225 8.77705C2.97594 8.77705 2.79839 8.77705 2.53207 8.68828C2.97593 10.1086 4.30751 11.1739 5.9054 11.1739C4.6626 12.1504 3.15348 12.683 1.46682 12.683C1.2005 12.683 0.934188 12.683 0.579102 12.5942C2.17699 13.5707 4.04119 14.1921 6.08294 14.1921C12.652 14.1921 16.2029 8.77705 16.2029 4.07215V3.6283C16.9131 3.36198 17.5345 2.74058 17.9783 2.03041Z" fill="white"/>
</svg>
