<svg width="66" height="22" viewBox="0 0 66 22" fill="none" xmlns="http://www.w3.org/2000/svg">
<path d="M28.1901 21.3041H22.8873L26.2015 0.936211H31.5049L28.1901 21.3041ZM18.4263 0.936211L13.3708 14.9454L12.7726 11.9287L12.7731 11.9298L10.9888 2.77011C10.9888 2.77011 10.773 0.936211 8.47332 0.936211H0.115647L0.0175781 1.28109C0.0175781 1.28109 2.57337 1.81284 5.56448 3.60914L10.1716 21.3046H15.6967L24.1333 0.936211H18.4263V0.936211ZM60.1356 21.3041H65.0048L60.7595 0.935666H56.4967C54.5282 0.935666 54.0488 2.45356 54.0488 2.45356L46.1401 21.3041H51.6679L52.7734 18.2787H59.5145L60.1356 21.3041ZM54.3005 14.0993L57.0868 6.47712L58.6542 14.0993H54.3005ZM46.5547 5.83422L47.3114 1.46034C47.3114 1.46034 44.9763 0.572266 42.542 0.572266C39.9105 0.572266 33.6613 1.7224 33.6613 7.31507C33.6613 12.577 40.9958 12.6424 40.9958 15.4063C40.9958 18.1702 34.417 17.675 32.2458 15.9321L31.4575 20.5054C31.4575 20.5054 33.8253 21.6555 37.443 21.6555C41.0617 21.6555 46.5209 19.7818 46.5209 14.6822C46.5209 9.38651 39.1205 8.89344 39.1205 6.59099C39.121 4.288 44.2855 4.58384 46.5547 5.83422V5.83422Z" fill="#2566AF"/>
<path d="M12.7731 11.9291L10.9888 2.76944C10.9888 2.76944 10.773 0.935547 8.47332 0.935547H0.115647L0.0175781 1.28042C0.0175781 1.28042 4.0346 2.11292 7.88763 5.23207C11.5718 8.21337 12.7731 11.9291 12.7731 11.9291Z" fill="#E6A540"/>
</svg>
