<svg width="25" height="15" viewBox="0 0 25 15" fill="none" xmlns="http://www.w3.org/2000/svg">
<path d="M24.0422 12.7794C24.0422 12.6844 23.9471 12.6844 23.9471 12.5893C23.567 11.8291 22.7117 10.8788 21.5713 9.83339C21.0011 9.35822 20.716 8.97809 20.5259 8.78802C20.2408 8.40789 20.2408 8.1228 20.3359 7.74266C20.4309 7.45756 20.811 6.98239 21.4763 6.12709C21.8564 5.65192 22.0464 5.36683 22.3315 5.08173C23.757 3.18107 24.4223 1.94563 24.2322 1.37543L24.1372 1.28041C24.0422 1.18538 23.9471 1.09035 23.757 1.09035C23.567 0.995313 23.2819 0.995313 22.9968 1.09035H19.3855C19.2905 1.09035 19.2905 1.09035 19.1004 1.09035C19.0054 1.09035 18.9104 1.09035 18.9104 1.09035H18.8153H18.7203L18.6253 1.18537C18.5302 1.2804 18.5302 1.2804 18.5302 1.37543C18.1501 2.4208 17.6749 3.2761 17.1998 4.22643C16.9147 4.70159 16.6296 5.17677 16.3445 5.5569C16.0594 5.93703 15.8693 6.22213 15.6792 6.41219C15.4892 6.60226 15.2991 6.69729 15.2041 6.88736C15.109 6.98239 14.919 7.07743 14.919 6.9824C14.8239 6.9824 14.7289 6.98239 14.7289 6.88736C14.6339 6.79232 14.5388 6.69729 14.4438 6.60226C14.3488 6.50722 14.3488 6.31716 14.2537 6.12709C14.2537 5.93702 14.2537 5.74696 14.2537 5.65192C14.2537 5.55689 14.2537 5.2718 14.2537 5.08173C14.2537 4.79663 14.2537 4.60656 14.2537 4.51153C14.2537 4.22643 14.2537 3.84631 14.2537 3.46617C14.2537 3.08604 14.2537 2.80093 14.2537 2.61087C14.2537 2.4208 14.2537 2.1357 14.2537 1.94564C14.2537 1.66054 14.2537 1.47047 14.2537 1.37543C14.2537 1.2804 14.1587 1.09034 14.1587 0.995307C14.0637 0.900274 13.9686 0.805238 13.8736 0.710205C13.7786 0.615172 13.5885 0.615175 13.4935 0.520141C13.0183 0.425108 12.4481 0.330078 11.7829 0.330078C10.2624 0.330078 9.21699 0.425114 8.83686 0.61518C8.6468 0.710213 8.45673 0.805241 8.3617 0.995307C8.17163 1.18537 8.17162 1.28041 8.26666 1.28041C8.74182 1.37544 9.12196 1.5655 9.31203 1.8506L9.40707 2.04068C9.5021 2.13571 9.50208 2.32577 9.59712 2.61087C9.69215 2.89597 9.69215 3.18107 9.69215 3.5612C9.69215 4.1314 9.69215 4.7016 9.69215 5.08173C9.69215 5.5569 9.59712 5.84199 9.59712 6.12709C9.59712 6.41219 9.5021 6.60226 9.40707 6.69729C9.31203 6.88736 9.31202 6.9824 9.21699 6.9824C9.21699 6.9824 9.21698 7.07742 9.12195 7.07742C9.02692 7.07742 8.93189 7.17246 8.74182 7.17246C8.64679 7.17246 8.45673 7.07743 8.3617 6.9824C8.17163 6.88736 7.98156 6.6973 7.88653 6.50723C7.69646 6.31716 7.50639 6.03206 7.31633 5.65192C7.12626 5.27179 6.84115 4.89166 6.65108 4.32147L6.46103 3.94134C6.366 3.75127 6.17593 3.37113 5.98587 2.89597C5.7958 2.4208 5.60573 2.04068 5.41566 1.56551C5.32063 1.37545 5.22561 1.2804 5.13058 1.18537H5.03554C5.03554 1.18537 4.94049 1.09035 4.84546 1.09035C4.75043 1.09035 4.65541 0.995307 4.56037 0.995307H1.13917C0.759042 0.995307 0.568978 1.09034 0.473945 1.18537L0.378906 1.28041C0.378906 1.28041 0.378906 1.37544 0.378906 1.47047C0.378906 1.56551 0.378912 1.66053 0.473945 1.8506C0.949111 2.991 1.51931 4.1314 2.08951 5.2718C2.6597 6.31716 3.22991 7.2675 3.61004 7.93273C4.08521 8.59796 4.46533 9.26319 4.9405 9.83339C5.41566 10.4036 5.70076 10.7837 5.79579 10.9738C5.98586 11.1639 6.08088 11.2589 6.17592 11.3539L6.46103 11.639C6.6511 11.8291 6.93619 12.1142 7.31633 12.3993C7.69646 12.6844 8.17162 12.9695 8.64678 13.2546C9.12195 13.5397 9.69216 13.7298 10.2624 13.9198C10.9276 14.1099 11.4978 14.2049 12.068 14.1099H13.4935C13.7786 14.1099 13.9687 14.0148 14.1587 13.8248L14.2537 13.7297C14.2537 13.6347 14.3488 13.6347 14.3488 13.5397C14.3488 13.4446 14.3488 13.3496 14.3488 13.1595C14.3488 12.7794 14.3488 12.4943 14.4438 12.2092C14.5388 11.9241 14.5389 11.7341 14.6339 11.544C14.7289 11.3539 14.8239 11.2589 14.919 11.1638C15.014 11.0688 15.1091 10.9738 15.1091 10.9738H15.2041C15.3941 10.8788 15.6792 10.9738 15.8693 11.1638C16.1544 11.3539 16.4395 11.639 16.6296 11.9241C16.8196 12.2092 17.1047 12.4943 17.4849 12.8744C17.865 13.2546 18.1501 13.5397 18.3402 13.6347L18.6253 13.8248C18.8153 13.9198 19.0054 14.0148 19.2905 14.1099C19.5756 14.2049 19.7657 14.2049 19.9557 14.2049L23.1869 14.1099C23.472 14.1099 23.7571 14.0148 23.9471 13.9198C24.1372 13.8248 24.2322 13.7297 24.2322 13.5397C24.2322 13.4446 24.2322 13.2546 24.2322 13.1595C24.0421 12.9695 24.0422 12.8744 24.0422 12.7794Z" fill="white"/>
</svg>
