<svg width="32" height="33" viewBox="0 0 32 33" fill="none" xmlns="http://www.w3.org/2000/svg">
<g clip-path="url(#clip0)">
<path d="M16 32.4814C24.8366 32.4814 32 25.318 32 16.4814C32 7.64489 24.8366 0.481445 16 0.481445C7.16344 0.481445 0 7.64489 0 16.4814C0 25.318 7.16344 32.4814 16 32.4814Z" fill="#4D76A1"/>
<path fill-rule="evenodd" clip-rule="evenodd" d="M15.3952 23.4987H16.651C16.651 23.4987 17.0304 23.4571 17.224 23.2483C17.4023 23.0567 17.3966 22.6967 17.3966 22.6967C17.3966 22.6967 17.372 21.0117 18.1541 20.7635C18.925 20.5191 19.915 22.3921 20.9643 23.1123C21.7578 23.6573 22.3607 23.5378 22.3607 23.5378L25.1664 23.4987C25.1664 23.4987 26.6341 23.4083 25.9382 22.2544C25.8812 22.1599 25.5329 21.4007 23.8521 19.8406C22.0929 18.2077 22.3285 18.4718 24.4477 15.6473C25.7383 13.9272 26.2542 12.877 26.0931 12.4273C25.9393 11.9989 24.9901 12.1121 24.9901 12.1121L21.8311 12.1318C21.8311 12.1318 21.5969 12.0998 21.4232 12.2037C21.2535 12.3055 21.1443 12.5428 21.1443 12.5428C21.1443 12.5428 20.6443 13.8739 19.9775 15.0059C18.5708 17.3946 18.0084 17.5206 17.7785 17.3723C17.2437 17.0266 17.3772 15.9836 17.3772 15.2426C17.3772 12.9278 17.7283 11.9626 16.6935 11.7128C16.3501 11.6298 16.0974 11.575 15.2192 11.5662C14.0921 11.5545 13.138 11.5696 12.5978 11.8343C12.2385 12.0103 11.9612 12.4025 12.1301 12.425C12.3388 12.4529 12.8117 12.5525 13.0624 12.8939C13.3862 13.3342 13.3748 14.3234 13.3748 14.3234C13.3748 14.3234 13.5607 17.0483 12.9404 17.3869C12.5145 17.619 11.9304 17.145 10.6763 14.9779C10.0337 13.8679 9.54859 12.6409 9.54859 12.6409C9.54859 12.6409 9.45504 12.4116 9.28819 12.2889C9.08568 12.1403 8.80275 12.093 8.80275 12.093L5.80086 12.1127C5.80086 12.1127 5.35022 12.1252 5.1848 12.3212C5.03763 12.4954 5.1731 12.8559 5.1731 12.8559C5.1731 12.8559 7.52328 18.3543 10.1843 21.1252C12.6243 23.6656 15.3952 23.4987 15.3952 23.4987Z" fill="white"/>
</g>
<defs>
<clipPath id="clip0">
<rect width="32" height="32" fill="white" transform="translate(0 0.481445)"/>
</clipPath>
</defs>
</svg>
