<svg width="20" height="15" viewBox="0 0 20 15" fill="none" xmlns="http://www.w3.org/2000/svg">
<path fill-rule="evenodd" clip-rule="evenodd" d="M19.6815 5.02981C19.6977 5.2547 19.7127 5.46452 19.7127 5.65928V7.26793V8.87658V8.87686C19.7127 9.29644 19.7127 9.78595 19.6428 10.3454C19.6428 10.9748 19.5729 11.4644 19.433 11.954C19.2931 12.5135 19.0133 12.9332 18.6636 13.2829C18.3139 13.6326 17.8243 13.8424 17.3347 13.9124C15.796 14.1222 13.3481 14.1921 10.1308 14.1921C6.91349 14.1921 4.53548 14.1222 2.92683 13.9124C2.43724 13.8424 1.94765 13.6326 1.59795 13.2829C1.1783 12.9332 0.968471 12.5135 0.828589 11.954C0.758708 11.4648 0.688835 10.9058 0.618954 10.3468L0.618774 10.3454C0.618774 10.0455 0.598686 9.76574 0.580041 9.50606C0.563894 9.28117 0.548828 9.07134 0.548828 8.87658V7.26793V5.65928C0.548828 5.23963 0.548832 4.75005 0.618774 4.19052C0.618774 3.56105 0.688706 3.07146 0.828589 2.58187C0.968471 2.02234 1.24824 1.6027 1.59795 1.25299C1.94765 0.903282 2.43724 0.693452 2.92683 0.623511C4.46554 0.413687 7.31535 0.34375 10.1308 0.34375C12.9462 0.34375 15.7261 0.413687 17.3347 0.623511C17.8243 0.693452 18.3139 0.903282 18.6636 1.25299C19.0833 1.6027 19.2931 2.02234 19.433 2.58187C19.5029 3.07146 19.5729 3.63099 19.6428 4.19052C19.6428 4.49037 19.6629 4.77013 19.6815 5.02981ZM12.9994 7.66263L8.96234 10.1667C8.91124 10.2178 8.80903 10.2689 8.70683 10.2689C8.60462 10.2689 8.55352 10.2689 8.45131 10.2178C8.29801 10.1156 8.1958 9.96225 8.1958 9.75784V4.69868C8.1958 4.49427 8.29801 4.34097 8.45131 4.23876C8.60462 4.13656 8.80903 4.13656 8.96234 4.23876L12.9994 6.74278C13.1527 6.84499 13.2549 6.9983 13.2549 7.15161C13.2549 7.30491 13.1527 7.56043 12.9994 7.66263Z" fill="white"/>
</svg>
